<svg xmlns="http://www.w3.org/2000/svg" xmlns:xlink="http://www.w3.org/1999/xlink" viewBox="0 0 1250.06 927.51"><defs><style>.cls-1{fill:none;}.cls-2{fill:#db5f32;}.cls-3{fill:#aa3725;}.cls-4{fill:#f9aa59;}.cls-5{fill:#f57741;}.cls-6{fill:#962c22;}.cls-7{fill:#eaeaef;}.cls-8{fill:#b6baba;}.cls-9{opacity:0.6;}.cls-10{fill:#f3a0c5;}.cls-11{clip-path:url(#clip-path);}.cls-12{opacity:0.4;}.cls-13{fill:#522886;}.cls-14{fill:#2c62aa;}.cls-15{fill:#7be;}.cls-16{fill:#3b74ce;}.cls-17{fill:#4a8cd1;}.cls-18{opacity:0.7;}.cls-19{opacity:0.8;}.cls-20{fill:#d3eae8;}.cls-21{fill:#9a59ba;}.cls-22{fill:#732797;}.cls-23{fill:#b364de;}.cls-24{fill:#56127b;}.cls-25{fill:#7918a6;}.cls-26{clip-path:url(#clip-path-2);}.cls-27{fill:#e8e8e8;}.cls-28{fill:#c9c9c9;}.cls-29{fill:#dadada;}.cls-30{fill:#afafaf;}.cls-31{fill:#808993;}.cls-32{fill:#727272;}.cls-33{fill:#444346;}.cls-34{fill:#7daf3c;}.cls-35{clip-path:url(#clip-path-5);}.cls-36{opacity:0.5;}.cls-37{fill:#898989;}.cls-38{fill:#00001c;}.cls-39{fill:#f7f7f7;}.cls-40{fill:#fffffe;}.cls-41{fill:#ea1f27;}.cls-42{fill:#fedc00;}.cls-43{fill:#5ec365;}.cls-44{fill:#ffe143;}.cls-45{fill:#ed6f82;}.cls-46{fill:#f31926;}.cls-47{fill:#99ce46;}.cls-48{fill:#03caff;}.cls-49{fill:#fc5465;}.cls-50{fill:#00002a;}.cls-51{fill:#d3af00;}.cls-52{fill:#a5a5a5;}.cls-53{fill:#9786a0;}.cls-54{fill:#2f2437;}.cls-55{fill:#b0bccd;}.cls-56{fill:#99a5b5;}.cls-57{fill:#665164;}.cls-58{fill:#a59520;}.cls-59{fill:#cc1515;}.cls-60{fill:#a35b21;}.cls-61{fill:#a03322;}.cls-62{clip-path:url(#clip-path-8);}.cls-63{fill:#a9aafd;}.cls-64{fill:#fc7685;}</style><clipPath id="clip-path"><path class="cls-1" d="M728.07,425.71c-3.89-6.32-14.39-.25-10.08,6.33C721.52,437.42,731.52,431.32,728.07,425.71Z"/></clipPath><clipPath id="clip-path-2"><rect class="cls-1" x="250.03" y="241.96" width="750" height="500"/></clipPath><clipPath id="clip-path-5"><path class="cls-1" d="M669.36,575.69s-3.8-12.1-5.77-13.9C662,560.36,659.87,560,651.7,560H596.87c-8.17,0-10.34.28-11.9,1.71-2,1.8-5.76,14.15-5.76,14.15L577.69,581h93.18Z"/></clipPath><clipPath id="clip-path-8"><polygon class="cls-1" points="677.78 621.65 653.69 621.81 651.23 603.44 673.29 603.57 677.78 621.65"/></clipPath></defs><title>Asset 1</title><g id="Layer_2" data-name="Layer 2"><g id="BACKGROUND_2" data-name="BACKGROUND 2"><path class="cls-2" d="M780.06,407.77A24.07,24.07,0,1,1,756,383.71,24.07,24.07,0,0,1,780.06,407.77Z"/><path class="cls-3" d="M771.54,400.51c.81,1,1.73,1.06,2.93,1.57,2.49,1,4,5,1.5,6.86s-6.45-.63-7.66-2.92c-.53-1-.66-2.17-1.2-3.19s-1.51-2.43-1-3.58a3,3,0,0,1,3.34-1.09c1,.36,1.34,1.38,1.89,2.14Z"/><path class="cls-3" d="M770,418.08a2.89,2.89,0,0,0,2.09-1.61c1.12-3.35-4.31-1.57-2.68,1.08Z"/><path class="cls-3" d="M759.13,419.68c.9.41,3,.39,3.29-.93.2-1.09-2.34-3.18-3.42-2.85C757.53,416.35,758,419.16,759.13,419.68Z"/><path class="cls-3" d="M750,411.4a9.74,9.74,0,0,1-4.45,3.3c-3,1.25-6.07.51-6.91-3-.51-2.23.65-4.56.88-6.67.41-2.46-.48-4.64,1-6.79,3-4.54,11.45.3,12.37,4.62.26,1.35-.38,2.26-.93,3.42a29.38,29.38,0,0,0-1.18,3.5A6.59,6.59,0,0,1,750,411.4Z"/><path class="cls-3" d="M756.52,396.46a12.2,12.2,0,0,0,1.48-.4c1.14-.36,1.81-.34,1.7-1.74a2.92,2.92,0,0,0-1.85-2.61,2.64,2.64,0,0,0-3.49,2.86C754.47,396.38,755.36,396.66,756.52,396.46Z"/><path class="cls-3" d="M749.66,389.32c-1.23,1.11-4.19-.08-3.84-2,.45-2.26,6-1.8,4.32,1.57Z"/><path class="cls-3" d="M746.82,419.41c.41-1,.1-2.57-1.38-2.37-1.3.17-.9,2.38,0,2.89A.92.92,0,0,0,746.82,419.41Z"/><path class="cls-4" d="M756.82,424.42c-1.23-.16-2.31-1.56-1-2.29,1.39-1.08,4.65,1.66,2,2.57Z"/><path class="cls-3" d="M764.23,425.69c.62-.07,2.35-.54,2.54-1.23s-.66-1.37-1.35-1.37C763.74,423.11,762.72,424.67,764.23,425.69Z"/><path class="cls-3" d="M765.35,386.71a11.74,11.74,0,0,0-1.37,0c-1.89.14-5.81-1.14-7.19.67s1.06,2.45,2.45,2.66a23.66,23.66,0,0,1,3.83.32,25.1,25.1,0,0,1,3,1.49c2.14.85,3.84-.11,3.84-2.45C769.89,387.3,767.31,386.77,765.35,386.71Z"/><path class="cls-4" d="M767.44,411.05c-.86-.21-3.73.54-1.7,1.92,1.06.75,3.72-.21,2.55-1.7Z"/><path class="cls-4" d="M771.59,419.9c-1.49.1.43,2.23,1.18.63a1.65,1.65,0,0,1-.54-.21Z"/><path class="cls-4" d="M750.61,427.56c.64-.31,2.45-.63,2.87.11.75,1.28-2,1.28-2.66.54Z"/><path class="cls-4" d="M735.59,403.28c-2.66,1.7,1.6,2.77.32.74Z"/><path class="cls-4" d="M771.59,394.12c-.53,0-1.06.1-1,.64.11.74,2.56.53,1.18-.54Z"/><path class="cls-4" d="M763.6,396.46c-.42-2.45,3,.86.54.75Z"/><path class="cls-5" d="M747.52,402.32a1.29,1.29,0,0,1,.35.06c.08,0,.2.07.3.13s.18.14.28.2a1.29,1.29,0,0,1,.42.45,1.8,1.8,0,0,1,.14.33,1,1,0,0,1-.35,0,1.89,1.89,0,0,1-.68-.27A1.42,1.42,0,0,1,747.52,402.32Z"/><path class="cls-5" d="M747.73,400.62a.91.91,0,0,1,.26-.14.87.87,0,0,1,.53,0,.82.82,0,0,1,.43.39.67.67,0,0,1,.06.29,1.72,1.72,0,0,1-.29,0,1.08,1.08,0,0,1-.43-.05A1.12,1.12,0,0,1,747.73,400.62Z"/><path class="cls-5" d="M768.6,408.43l.29.15c.17.1.43.28.72.43a3.29,3.29,0,0,1,.46.23c.14.09.34.14.52.23a11,11,0,0,0,1.15.43c.4.1.8.23,1.2.3s.77.14,1.1.21.61.1.81.14a2.1,2.1,0,0,1,.32.07l-.3.13a5,5,0,0,1-.82.26,4.25,4.25,0,0,1-1.22.1,5.79,5.79,0,0,1-1.4-.21l-.68-.27a2.88,2.88,0,0,1-.61-.36,3.85,3.85,0,0,1-.94-.83,3.93,3.93,0,0,1-.46-.72Z"/><path class="cls-5" d="M774.44,413a2.61,2.61,0,0,1,.34-.42c.11-.1.25-.19.35-.3a1.45,1.45,0,0,1,.36-.25,3.63,3.63,0,0,1,.8-.38,3.55,3.55,0,0,1,.52-.11,1.47,1.47,0,0,1-.08.53,1.83,1.83,0,0,1-.7.86,1.77,1.77,0,0,1-1.08.23A2.68,2.68,0,0,1,774.44,413Z"/><path class="cls-6" d="M766.05,390.54s.29-.15.56-.36a2.41,2.41,0,0,0,.76-.72.63.63,0,0,0,.1-.31,1.07,1.07,0,0,0-.14-.43,3.59,3.59,0,0,0-.25-.38,1.48,1.48,0,0,1-.12-.17,1.38,1.38,0,0,1,.74.07,1.21,1.21,0,0,1,.75,1.18,1.47,1.47,0,0,1-.17.56,1.67,1.67,0,0,1-1.53.78A1.45,1.45,0,0,1,766.05,390.54Z"/><path class="cls-5" d="M737.06,412.13a1.65,1.65,0,0,1,.1.29,5.29,5.29,0,0,0,.24.76c.07.13.14.27.2.41s.19.29.26.44a7.76,7.76,0,0,0,.67.9c.28.26.54.56.84.79s.27.26.41.35a3.25,3.25,0,0,1,.4.31c.24.2.47.34.63.46a2.27,2.27,0,0,1,.24.2h-.31a3.19,3.19,0,0,1-.82-.11,3.72,3.72,0,0,1-1.08-.45,2.47,2.47,0,0,1-.56-.37l-.52-.47-.42-.57a2.57,2.57,0,0,1-.31-.62,2.38,2.38,0,0,1-.18-.63c0-.21,0-.41-.05-.59a3.1,3.1,0,0,1,.16-.8C737,412.23,737.06,412.13,737.06,412.13Z"/><path class="cls-5" d="M736.76,417.65a5,5,0,0,1,.82.16c.24.07.5.16.77.22a6.42,6.42,0,0,1,.8.29,10,10,0,0,1,1.53.7,5.21,5.21,0,0,1,.68.47,4.09,4.09,0,0,1-.83.11,5.11,5.11,0,0,1-1.75-.3,4.26,4.26,0,0,1-1.52-1A4.93,4.93,0,0,1,736.76,417.65Z"/><path class="cls-6" d="M740.75,400.78l.46.69a5.56,5.56,0,0,1,.38.91,5.16,5.16,0,0,1,.22,1.27,10.8,10.8,0,0,1,0,1.49c0,.52-.1,1.06-.15,1.61s0,1.07-.07,1.69-.13,1.26-.18,1.83a2.22,2.22,0,0,0,.14,1.39,1.79,1.79,0,0,0,1.17.58,4.69,4.69,0,0,0,1.48.07,2.53,2.53,0,0,0,1.16-.46,2.7,2.7,0,0,0,.73-.83,3.51,3.51,0,0,0,.35-.84l.17-.81a7.06,7.06,0,0,1,0,.84,3.64,3.64,0,0,1-.21,1,2.59,2.59,0,0,1-.68,1.14,2.88,2.88,0,0,1-1.43.77,4.68,4.68,0,0,1-1.75.08,2.6,2.6,0,0,1-1.86-.92,3.07,3.07,0,0,1-.35-2.08c.07-.63.18-1.2.21-1.74a13.08,13.08,0,0,1,.16-1.77c.07-.58.2-1.11.29-1.61a13.82,13.82,0,0,0,.22-1.4,7.73,7.73,0,0,0,0-1.18,5.06,5.06,0,0,0-.19-.9C740.84,401.07,740.75,400.78,740.75,400.78Z"/><path class="cls-7" d="M484,508.34a12,12,0,1,1-16.21,5.2A12,12,0,0,1,484,508.34Z"/><path class="cls-8" d="M472.76,510.67c-.5-.3-1.26.12-1.58.54a.86.86,0,0,0,0,1.07c.35.32.73,0,1.05-.17C472.77,511.84,473.61,511.18,472.76,510.67Z"/><path class="cls-8" d="M473.79,510.69a.36.36,0,0,1-.11-.3c0-.46.79-.91,1.1-.48S474.15,511,473.79,510.69Z"/><g class="cls-9"><path class="cls-8" d="M474.26,511.35a1.94,1.94,0,0,0-1.4,1.28c-.36,1.14,1.16.65,1.6.29C475.16,512.37,475.56,511.32,474.26,511.35Z"/></g><path class="cls-8" d="M475.68,526.74a2.16,2.16,0,0,0-2.81-.11c-1.18,1.06.7,2.16,1.63,2.32A1.27,1.27,0,0,0,475.68,526.74Z"/><path class="cls-8" d="M472.92,525.52c.09.61-.77.82-1.22.63-.23-.11-.55-.43-.51-.71C471.27,524.73,472.83,524.87,472.92,525.52Z"/><path class="cls-8" d="M473.92,525.33l.07,0c.7.22.84-1.14.13-1.24S473.38,525.09,473.92,525.33Z"/><path class="cls-8" d="M468.07,518.52c-.47-.86-1,.11-.74.69C467.67,520,468.36,519.05,468.07,518.52Z"/><path class="cls-8" d="M483.74,509.65c-.19.84-1.53.54-1.83-.08C481.38,508.5,484,508.45,483.74,509.65Z"/><g class="cls-9"><path class="cls-8" d="M482.65,528.09a.91.91,0,0,0-1.17.46C480.87,529.75,484.12,528.85,482.65,528.09Z"/></g><g class="cls-9"><path class="cls-8" d="M477.33,515.73c-1,3.29,5.4,4.8,7.31,2.4,3-3.18-2.52-6.91-5.95-3.73Z"/></g><path class="cls-10" d="M728.07,425.71c-3.89-6.32-14.39-.25-10.08,6.33C721.52,437.42,731.52,431.32,728.07,425.71Z"/><g class="cls-11"><g class="cls-12"><path class="cls-13" d="M715.27,430.59c3.44.3,9.36-5.86,11.66-8.38.31,2.2-1.83,4.17-3.48,5.35-1.82,1.32-7.7,2.45-8.15,4.73a.29.29,0,0,0,.37,0,9.88,9.88,0,0,1-.43-1.05,2.48,2.48,0,0,1,1.3-.83c-1,1-.71,2.15.68,2.35,1,.14,2.82-1.3,3.67-1.78,1.88-1.09,4.25-2,5.92-3.42,1.46-1.22,2.26-3,3.42-4.48.43,3.11-2.33,4.05-4.35,5.39-2.37,1.58-4.61,3.72-7.26,4.89-3.91,1.72-1.41,2.76,1.62,1.57s5.67-5.53,8.69-5.83c2.22,3.89-11.47,9.29-12.36,5.61"/></g></g><path class="cls-14" d="M632,523.26a22.05,22.05,0,0,0-25.42,8.68c3.11-.69,6.23-1.74,9.07-2.46A82.45,82.45,0,0,0,632,523.26Z"/><path class="cls-15" d="M614.16,543.54a39.25,39.25,0,0,1,7.44-1.66,91.22,91.22,0,0,0,9.81-2.72A52.37,52.37,0,0,0,643,534.44c.44-.24.93-.55,1.44-.88a23.93,23.93,0,0,0-1.34-2.09,75.92,75.92,0,0,1-15.23,7.34C623.37,540.34,618.65,541.88,614.16,543.54Z"/><path class="cls-14" d="M612.22,562.29a22.12,22.12,0,0,0,32.36-7.64c-5.71,2.88-12.22,4.26-18.37,5.9A56.21,56.21,0,0,1,612.22,562.29Z"/><path class="cls-15" d="M615.46,548.14c3.66-1.06,7.8-2.24,11.1-4.25-3.54,0-6.14,1.89-9.57,2.72a41.56,41.56,0,0,1-13.87.68c.1.73.23,1.45.4,2.16A35.8,35.8,0,0,0,615.46,548.14Z"/><path class="cls-16" d="M644.43,533.56c-.51.33-1,.64-1.44.88a52.37,52.37,0,0,1-11.58,4.72,91.22,91.22,0,0,1-9.81,2.72,39.25,39.25,0,0,0-7.44,1.66c4.49-1.66,9.21-3.2,13.7-4.73a75.92,75.92,0,0,0,15.23-7.34,21.16,21.16,0,0,0-1.63-2c-10.88,8.17-25.3,11-38.51,13.11,0,.56-.06,1.12-.06,1.69a21.87,21.87,0,0,0,.23,3,41.56,41.56,0,0,0,13.87-.68c3.43-.83,6-2.72,9.57-2.72-3.3,2-7.44,3.19-11.1,4.25a35.8,35.8,0,0,1-11.94,1.31,22.23,22.23,0,0,0,8.7,12.84,56.21,56.21,0,0,0,14-1.74c6.15-1.64,12.66-3,18.37-5.9a22.51,22.51,0,0,0,1.72-4.25,21.8,21.8,0,0,0-3.79,2.4c-2.83,2.3-8.38,3.38-8.38,3.38A17.78,17.78,0,0,0,641,552.4a33.45,33.45,0,0,1,5.84-4.22,22,22,0,0,0-2.39-14.62Z"/><path class="cls-17" d="M632,523.26a82.45,82.45,0,0,1-16.35,6.22c-2.84.72-6,1.77-9.07,2.46A22.11,22.11,0,0,0,603,542.56c13.21-2.1,27.63-4.94,38.51-13.11A22.12,22.12,0,0,0,632,523.26Z"/><path class="cls-15" d="M634.13,556.18s5.55-1.08,8.38-3.38a21.8,21.8,0,0,1,3.79-2.4c.2-.73.38-1.47.52-2.22A33.45,33.45,0,0,0,641,552.4,17.78,17.78,0,0,1,634.13,556.18Z"/><g class="cls-18"><path class="cls-14" d="M638.73,526.9s-.31.29-.83.82a3.46,3.46,0,0,0-.38.45c-.12.24-.4.34-.61.47-.45.26-.95.54-1.52.84s-1.15.65-1.82.95-1.36.65-2.09,1-1.51.61-2.28.92-1.59.59-2.39.88-1.62.53-2.42.75-1.6.48-2.37.67c-1.55.4-3,.7-4.26.94s-2.3.38-3,.49l-1.15.16,1.13-.29c.72-.18,1.75-.43,3-.76.62-.16,1.29-.32,2-.52s1.43-.42,2.2-.62,1.54-.47,2.34-.71,1.6-.51,2.39-.79,1.61-.52,2.38-.82,1.55-.57,2.28-.87,1.43-.6,2.1-.87,1.29-.58,1.87-.84l1.58-.72c.25-.12.46-.16.57-.34a3.08,3.08,0,0,1,.45-.44,7,7,0,0,1,.68-.54Z"/></g><g class="cls-18"><path class="cls-14" d="M620.65,536.56s.65-.34,1.64-.78,2.33-1,3.7-1.44,2.66-1.06,3.68-1.4,1.74-.51,1.74-.51-.62.38-1.58.89-2.28,1.13-3.61,1.7-2.75.88-3.8,1.15S620.65,536.56,620.65,536.56Z"/></g><g class="cls-18"><path class="cls-14" d="M625.38,531.13s.72-.39,1.81-.9c.55-.25,1.2-.53,1.87-.86s1.42-.64,2.15-1,1.45-.68,2.13-1c.34-.15.69-.28,1-.43l.88-.41c1.11-.49,1.87-.78,1.87-.78s-.65.48-1.67,1.14a16.66,16.66,0,0,1-1.79,1c-.67.36-1.39.71-2.12,1.07a35.21,35.21,0,0,1-4.16,1.54C626.17,531,625.38,531.13,625.38,531.13Z"/></g><path class="cls-14" d="M631.8,554.9a3.54,3.54,0,0,0-1.13-.59,10.67,10.67,0,0,0-7.3.45c-2.12,1.07-6,4.37-1.89,5.08,2.8.48,7.72-.54,10-2.19C632.8,556.7,632.74,555.63,631.8,554.9Z"/><g class="cls-19"><path class="cls-15" d="M638.73,541.05s-.53.47-1.36,1.1l-.68.5c-.24.17-.53.31-.82.48-.57.32-1.2.64-1.83,1-1.27.56-2.58,1.07-3.56,1.41s-1.67.52-1.67.52.58-.39,1.5-.9,2.16-1.12,3.43-1.68c.61-.3,1.23-.6,1.82-.86.28-.14.58-.24.84-.39l.75-.39C638.08,541.33,638.73,541.05,638.73,541.05Z"/></g><g class="cls-19"><path class="cls-15" d="M642.4,537.51s-.55.41-1.39,1a11.27,11.27,0,0,1-1.5.86c-.57.28-1.2.57-1.82.85a29.28,29.28,0,0,1-3.55,1.12c-1,.22-1.67.33-1.67.33s.61-.32,1.54-.72,2.16-.94,3.41-1.4c.61-.26,1.22-.52,1.81-.74.29-.12.57-.21.84-.33l.75-.34C641.75,537.73,642.4,537.51,642.4,537.51Z"/></g><path class="cls-17" d="M623.26,563.51s.39-.22,1-.48a16.68,16.68,0,0,1,2.27-.76,17.53,17.53,0,0,1,2.25-.7c.64-.14,1.09-.19,1.09-.19s-.36.25-.94.58a19.17,19.17,0,0,1-2.22,1,18.72,18.72,0,0,1-2.35.47C623.7,563.5,623.26,563.51,623.26,563.51Z"/><g class="cls-19"><path class="cls-15" d="M624.56,550.39l.93-.28c.59-.17,1.45-.4,2.45-.72l1.62-.5,1.8-.62c1.25-.41,2.55-.95,3.87-1.43l1.92-.82c.65-.25,1.26-.54,1.85-.83s1.18-.54,1.71-.82l1.5-.8c.46-.26.89-.48,1.25-.71l.94-.59.83-.51-.75.62-.87.7a9.12,9.12,0,0,1-1.19.83l-1.46.92c-.52.32-1.09.61-1.68.93s-1.19.64-1.84.9l-2,.85-2,.72a19.34,19.34,0,0,1-2,.63c-1.26.41-2.48.68-3.51.92s-1.92.35-2.52.47Z"/></g><g class="cls-18"><path class="cls-20" d="M452,318.57a227.37,227.37,0,0,0-85.53-37.44l.26-1.38a229.41,229.41,0,0,1,86.1,37.68Z"/></g><g class="cls-12"><path class="cls-20" d="M408.82,300c18.84,8.22,34.67,18.21,44.65,27.5a6.07,6.07,0,0,0,.68-1.38c-10.52-9.48-26.22-19.34-44.76-27.43-17.29-7.53-34-12.21-47.64-13.83l-1,1.35C374,287.61,391.08,292.31,408.82,300Z"/></g><g class="cls-12"><path class="cls-20" d="M409.8,297.8c17.84,7.78,33.16,17.14,44,26.31.55-.72,1.06-1.36,1.58-1.95-11.46-9.3-26.9-18.61-44.72-26.38S375.63,283.06,361,281a15.32,15.32,0,0,1,.45,2.58C375.42,285.38,392.34,290.19,409.8,297.8Z"/></g><path class="cls-21" d="M411,306.84c8.34,4.85,16,10.63,25.51,12,5.69,1.06,10.24,2.86,14.94,2.77a55.29,55.29,0,0,0-.13-5.61C438,320.28,422.9,311.61,411,306.84Z"/><path class="cls-22" d="M413.82,289.75c10.22,2.23,19.93,2.57,29.74,3.07A50.45,50.45,0,0,0,378.42,275C388.42,283.37,400,286.64,413.82,289.75Z"/><path class="cls-21" d="M411.19,298.32c9.2,3.1,14.88,2.58,23.7,1.06a64.33,64.33,0,0,1,12.1-.24,48.92,48.92,0,0,0-3.43-6.32c-9.81-.5-19.52-.84-29.74-3.07-13.84-3.11-25.4-6.38-35.4-14.78a52.07,52.07,0,0,0-7,4.24C381,289.29,400.08,294.05,411.19,298.32Z"/><path class="cls-21" d="M419.1,360.48c-7.91.28-11.88-4.64-19.7-5.73-4.45-.47-6,.29-10.12-1.86-3.83-1.93-7.2-4.47-11-6.39-5-2.32-10.28-2.95-14.94-5-4.94-2.62-8.2-6.75-11.5-10.94a50.65,50.65,0,0,0,6.7,16.44c12.62,7.62,30.17,7.86,43.95,12,5.44,1.7,9.72,4.93,15.09,6.09,1.38.36,2.8.64,4.23.89a50,50,0,0,0,10.77-6.57C428,359.78,423.43,360.29,419.1,360.48Z"/><path class="cls-22" d="M402.46,359c-13.78-4.15-31.33-4.39-43.95-12a50.43,50.43,0,0,0,63.27,19c-1.43-.25-2.85-.53-4.23-.89C412.18,363.91,407.9,360.68,402.46,359Z"/><path class="cls-23" d="M363.31,341.47c4.66,2.08,10,2.71,14.94,5,3.83,1.92,7.2,4.46,11,6.39,4.14,2.15,5.67,1.39,10.12,1.86,7.82,1.09,11.79,6,19.7,5.73,4.33-.19,8.9-.7,13.45-1.09a50.79,50.79,0,0,0,8.8-9.06,50.19,50.19,0,0,0,10.12-28.7c-4.7.09-9.25-1.71-14.94-2.77-9.51-1.39-17.17-7.17-25.51-12,11.88,4.77,27,13.44,40.32,9.18A50.7,50.7,0,0,0,447,299.14a64.33,64.33,0,0,0-12.1.24c-8.82,1.52-14.5,2-23.7-1.06-11.11-4.27-30.22-9-39.74-19.11a50.44,50.44,0,0,0-19.64,51.32C355.11,334.72,358.37,338.85,363.31,341.47Zm-3.21-40.35,2.46-.07c9.58,1.94,16.78,6.41,25.05,12.64,8,6,16.56,4.79,25.52,8.19-11.5,1.89-22.16.1-31.2-7.67C376,308.75,368.23,302.44,360.1,301.12Z"/><path class="cls-21" d="M413.13,321.88c-9-3.4-17.56-2.19-25.52-8.19-8.27-6.23-15.47-10.7-25.05-12.64l-2.46.07c8.13,1.32,15.86,7.63,21.83,13.09C391,322,401.63,323.77,413.13,321.88Z"/><path class="cls-21" d="M381.05,317.42l1.75,1c.56.3,1.19.76,1.95,1.24s1.56,1.08,2.44,1.72,1.84,1.34,2.88,2c.5.36,1.06.66,1.61,1a14.32,14.32,0,0,0,1.74.91,20.2,20.2,0,0,0,3.79,1.38l4.26.84,2.13.44,2.13.24,4.13.51c1.34.16,2.66.19,3.9.3l3.5.24,5.28.1,2,.07-2,.2-2.3.21c-.89.07-1.89.2-3,.21h-3.54c-1.26,0-2.59.06-4-.08l-4.24-.41-2.18-.23-2.14-.41-4.25-.89a19.47,19.47,0,0,1-4.08-1.6,13,13,0,0,1-1.78-1c-.56-.37-1.11-.72-1.6-1.12-1-.76-1.93-1.52-2.77-2.22-1.68-1.41-3-2.6-4.06-3.36Z"/><path class="cls-24" d="M398.35,360.6s.28,0,.76,0a4.79,4.79,0,0,1,.88.05,5.09,5.09,0,0,1,1.15.23,22.26,22.26,0,0,1,5.45,2.68c.45.28.9.57,1.36.82s.89.51,1.32.71a8.65,8.65,0,0,0,2.47.85,5,5,0,0,0,1.05.09,2.72,2.72,0,0,0,.84-.06c.45-.09.74-.12.74-.12a6.84,6.84,0,0,1-.67.38,2.82,2.82,0,0,1-.83.32,3.71,3.71,0,0,1-1.17.2,6.94,6.94,0,0,1-1.41-.09,9.65,9.65,0,0,1-1.5-.42,18.82,18.82,0,0,1-2.94-1.48c-1.87-1.17-3.59-2.42-5-3.13a8.8,8.8,0,0,0-1.77-.76C398.62,360.7,398.35,360.6,398.35,360.6Z"/><path class="cls-24" d="M390.81,277.14l1.36,1a16.05,16.05,0,0,0,1.59,1.13c.63.41,1.31.89,2.11,1.33a25.09,25.09,0,0,0,2.6,1.42c.92.5,2,.87,3,1.35a54.91,54.91,0,0,0,6.82,2.14c2.37.58,4.78,1,7.06,1.35s4.42.62,6.26.79l4.46.49,1.69.22-1.7.06c-1.09,0-2.64.08-4.5,0s-4-.12-6.36-.35c-1.16-.15-2.37-.25-3.58-.48s-2.43-.46-3.66-.73-2.43-.64-3.59-1-2.29-.89-3.38-1.33a31.36,31.36,0,0,1-3-1.58,30.26,30.26,0,0,1-2.54-1.65,18.83,18.83,0,0,1-2-1.6,15.22,15.22,0,0,1-1.44-1.33Z"/><path class="cls-21" d="M421.18,302.69s1-.12,2.47-.18c.37,0,.77,0,1.19,0s.85-.1,1.3-.14c.88-.09,1.83-.14,2.77-.2s1.91-.24,2.82-.31,1.75-.14,2.48-.21c1.46-.13,2.47-.12,2.47-.12s-.9.42-2.31.91a27.79,27.79,0,0,1-5.33,1.13c-1,0-2,.06-3,0a8.73,8.73,0,0,1-2.52-.29C422.13,303,421.18,302.69,421.18,302.69Z"/><path class="cls-21" d="M432.61,304.88a5.24,5.24,0,0,1,.92-.52,8.11,8.11,0,0,1,2.11-.56,7.52,7.52,0,0,1,2.09-.2,5.85,5.85,0,0,1,1,.16,5.83,5.83,0,0,1-.87.62,8.08,8.08,0,0,1-2.11.82,7.73,7.73,0,0,1-2.17,0A6.23,6.23,0,0,1,432.61,304.88Z"/><path class="cls-21" d="M355.29,329.25l1,1,1.1,1.15a13.11,13.11,0,0,0,1.51,1.42c.57.48,1.18,1,1.82,1.58s1.43,1,2.16,1.62,1.51,1.17,2.36,1.67l2.5,1.62a19.45,19.45,0,0,0,2.61,1.33,22,22,0,0,0,2.65.93c.9.21,1.77.45,2.62.59s1.65.28,2.4.37c3,.4,5,.76,5,.76l-1.4,0c-.88,0-2.15.07-3.69,0-.76,0-1.59-.07-2.47-.15a20,20,0,0,1-2.76-.4,17.68,17.68,0,0,1-2.92-.89,19.87,19.87,0,0,1-2.78-1.36l-2.56-1.71a25.13,25.13,0,0,1-2.34-1.82,22.16,22.16,0,0,1-2.08-1.84c-.62-.64-1.19-1.25-1.73-1.8l-.76-.81c-.2-.28-.39-.55-.56-.81-.36-.51-.66-1-.92-1.31Z"/><path class="cls-25" d="M383.31,314s.23.14.61.4a17.41,17.41,0,0,0,1.58,1l1.08.61c.36.23.83.36,1.25.58.86.43,1.85.74,2.8,1.11,2,.64,4,1.24,5.47,1.7s2.48.87,2.48.87-1.06-.1-2.61-.36c-.77-.14-1.68-.27-2.64-.5s-2-.52-3-.83a19.93,19.93,0,0,1-2.86-1.25,9,9,0,0,1-1.25-.74l-1-.77a10.61,10.61,0,0,1-1.38-1.32Z"/><path class="cls-25" d="M445.27,319.64a2.44,2.44,0,0,1,.64-.1,8.55,8.55,0,0,1,1.24,0,4.62,4.62,0,0,1,.65.08c.21,0,.41.11.58.13a3.05,3.05,0,0,1,.6.21,2.53,2.53,0,0,1-.57.32,3.09,3.09,0,0,1-1.34.19,3.16,3.16,0,0,1-1.3-.42A3.32,3.32,0,0,1,445.27,319.64Z"/><g class="cls-12"><path class="cls-20" d="M475.58,356.6c3.81-8.76-4.37-21.59-20.18-34.44-.52.59-1,1.23-1.58,1.95,13.05,11,19.68,21.73,16.47,29.07-5.86,13.46-42.46,10.48-81.74-6.64s-66.37-41.92-60.5-55.38c3.26-7.48,16-9.88,33.44-7.6A15.32,15.32,0,0,0,361,281c-20.24-2.87-35.27-.14-39.09,8.63-6.58,15.09,22.47,42.32,64.9,60.82S469,371.69,475.58,356.6Z"/></g><g class="cls-12"><path class="cls-20" d="M467.48,351.91c2.87-6.57-2.45-16-13.33-25.75a6.07,6.07,0,0,1-.68,1.38c8.87,8.25,13.14,15.95,10.79,21.35-5,11.45-37.91,8.15-73.52-7.38s-60.43-37.4-55.43-48.85c2.5-5.75,12-7.77,25.42-6.41l1-1.35c-16.09-1.91-27.81.45-30.86,7.46-5.63,12.92,20.37,36.72,58.09,53.17S461.85,364.84,467.48,351.91Z"/></g><g class="cls-18"><path class="cls-20" d="M452.8,368.7c-17.61,0-41.75-5.62-66.72-16.51C341.63,332.81,311.17,304,318.16,288c4-9.15,19.1-12.57,41.43-9.4,2.33.34,4.72.73,7.11,1.19l-.26,1.38c-2.38-.45-4.75-.84-7-1.17-21.35-3-36.29.17-39.95,8.56-6.68,15.33,23.46,43.31,67.19,62.38s84.75,22.11,91.44,6.78c3.64-8.37-4.13-21.46-20.8-35-1.69-1.36-3.47-2.74-5.31-4.1l.83-1.14c1.86,1.38,3.66,2.78,5.36,4.15,17.45,14.18,25.18,27.55,21.2,36.67C476.3,365.27,466.54,368.7,452.8,368.7Z"/></g><g class="cls-26"><path class="cls-27" d="M625,305.75c-134.7,0-243.89,109.19-243.89,243.89S490.33,793.54,625,793.54s243.9-109.2,243.9-243.9S759.73,305.75,625,305.75ZM634.36,778C508.21,783.18,401.78,685.09,396.63,559s92.93-232.58,219.08-237.73S848.29,414.15,853.44,540.3,760.5,772.88,634.36,778Z"/><path class="cls-27" d="M629.68,441.66A111.36,111.36,0,1,0,736.29,557.58,111.37,111.37,0,0,0,629.68,441.66ZM625,650.53a100.8,100.8,0,1,1,100.8-100.79A100.78,100.78,0,0,1,625,650.53Z"/><path class="cls-28" d="M632,453c0,3.67-6.36,6.93-6.36,6.93h-.28S618,456.7,618,453V238.33c0-3.67,3.7-6.37,7.36-6.37h.28a6.18,6.18,0,0,1,6.36,6.37Z"/><path class="cls-28" d="M528.3,544c3.66,0,5.73,5.66,5.73,5.66v.29S532,558,528.3,558H313.59c-3.66,0-7.56-4.39-7.56-8.05v-.29c0-3.66,3.9-5.66,7.56-5.66Z"/><path class="cls-28" d="M585.13,461.57c1.77,3.21-2.61,9-2.61,9l-.25.14s-7.24.6-9-2.61l-103.63-188a6.63,6.63,0,0,1,2.61-9l.25-.14a6.63,6.63,0,0,1,9,2.61Z"/><path class="cls-28" d="M546.24,493.89c3.06,2,1.89,9.19,1.89,9.19l-.15.24s-6.13,3.91-9.19,1.89L359.5,387.09a6.63,6.63,0,0,1-1.89-9.19l.15-.24a6.64,6.64,0,0,1,9.2-1.89Z"/><path class="cls-29" d="M721.76,544c-3.67,0-6.73,5.66-6.73,5.66v.29s3.06,8.05,6.73,8.05h214.7c3.67,0,6.57-4.39,6.57-8.05v-.29c0-3.66-2.9-5.66-6.57-5.66Z"/><path class="cls-28" d="M664.93,461.57c-1.77,3.21,2.6,9,2.6,9l.25.14s7.25.6,9-2.61l103.62-188a6.63,6.63,0,0,0-2.61-9l-.24-.14a6.64,6.64,0,0,0-9,2.61Z"/><path class="cls-28" d="M703.81,493.89c-3.06,2-1.89,9.19-1.89,9.19l.16.24s6.13,3.91,9.19,1.89L890.56,387.09a6.64,6.64,0,0,0,1.89-9.19l-.16-.24a6.63,6.63,0,0,0-9.19-1.89Z"/><path class="cls-27" d="M625,182.65c-202.68,0-367,164.31-367,367s164.31,367,367,367,367-164.31,367-367S827.72,182.65,625,182.65Zm0,711c-190,0-344-154-344-344s154-344,344-344,344,154,344,344S815,893.61,625,893.61Z"/><path class="cls-28" d="M625,171.77c-208.69,0-377.87,169.18-377.87,377.87S416.34,927.51,625,927.51,1002.9,758.33,1002.9,549.64,833.73,171.77,625,171.77Zm0,732c-195.6,0-354.16-158.57-354.16-354.17S429.43,195.48,625,195.48,979.2,354,979.2,549.64,820.63,903.81,625,903.81Z"/><path class="cls-27" d="M625,251.42c-164.7,0-298.22,133.52-298.22,298.22S460.33,847.86,625,847.86,923.25,714.34,923.25,549.64,789.73,251.42,625,251.42Zm0,588.15c-160.12,0-289.93-129.8-289.93-289.93S464.91,259.71,625,259.71,915,389.52,915,549.64,785.16,839.57,625,839.57Z"/><path class="cls-28" d="M625,299.61c-138.09,0-250,111.94-250,250s111.94,250,250,250,250-111.94,250-250S763.12,299.61,625,299.61Zm9.56,484.16c-129.31,5.28-238.43-95.27-243.71-224.59s95.27-238.43,224.59-243.71S853.9,410.74,859.18,540.06,763.91,778.49,634.59,783.77Z"/><path class="cls-28" d="M629.82,438.37A114.65,114.65,0,1,0,739.59,557.72,114.66,114.66,0,0,0,629.82,438.37Zm-4.79,215A103.78,103.78,0,1,1,728.81,549.64,103.78,103.78,0,0,1,625,653.42Z"/><path class="cls-30" d="M643.7,256.93A18.67,18.67,0,1,1,625,238.26,18.67,18.67,0,0,1,643.7,256.93Z"/><path class="cls-29" d="M639.39,256.93A14.36,14.36,0,1,1,625,242.58,14.36,14.36,0,0,1,639.39,256.93Z"/><path class="cls-30" d="M639.31,306.22A14.28,14.28,0,1,1,625,292,14.28,14.28,0,0,1,639.31,306.22Z"/><path class="cls-29" d="M635,306.26a10,10,0,1,1-10-10A10,10,0,0,1,635,306.26Z"/><circle class="cls-30" cx="625.03" cy="441.78" r="10.66"/><path class="cls-29" d="M632.44,441.78a7.41,7.41,0,1,1-7.41-7.41A7.4,7.4,0,0,1,632.44,441.78Z"/><path class="cls-30" d="M332.2,531.1a18.67,18.67,0,1,1-18.67,18.67A18.67,18.67,0,0,1,332.2,531.1Z"/><circle class="cls-29" cx="332.2" cy="549.77" r="14.36" transform="translate(-185.1 168.97) rotate(-22.5)"/><path class="cls-30" d="M381.49,535.49a14.28,14.28,0,1,1-14.28,14.28A14.27,14.27,0,0,1,381.49,535.49Z"/><path class="cls-29" d="M381.49,539.84a9.93,9.93,0,1,1-9.93,9.93A9.93,9.93,0,0,1,381.49,539.84Z"/><circle class="cls-30" cx="517.04" cy="549.77" r="10.66"/><circle class="cls-29" cx="517.04" cy="549.77" r="7.4"/><path class="cls-30" d="M500.9,284.08a18.67,18.67,0,1,1-25.36-7.34A18.67,18.67,0,0,1,500.9,284.08Z"/><path class="cls-29" d="M497.12,286.16a14.36,14.36,0,1,1-19.5-5.64A14.36,14.36,0,0,1,497.12,286.16Z"/><path class="cls-30" d="M520.84,329.38a14.27,14.27,0,1,1-19.39-5.62A14.27,14.27,0,0,1,520.84,329.38Z"/><path class="cls-29" d="M517,331.47a9.93,9.93,0,1,1-13.48-3.9A9.93,9.93,0,0,1,517,331.47Z"/><path class="cls-30" d="M583.1,449.84a10.66,10.66,0,1,1-14.48-4.2A10.67,10.67,0,0,1,583.1,449.84Z"/><path class="cls-29" d="M580.25,451.41a7.41,7.41,0,1,1-10.06-2.91A7.42,7.42,0,0,1,580.25,451.41Z"/><path class="cls-30" d="M389,376.08a18.66,18.66,0,1,1-25.86,5.31A18.66,18.66,0,0,1,389,376.08Z"/><path class="cls-29" d="M386.66,379.68a14.35,14.35,0,1,1-19.89,4.09A14.35,14.35,0,0,1,386.66,379.68Z"/><path class="cls-30" d="M539,484.46a10.66,10.66,0,1,1-14.77,3A10.66,10.66,0,0,1,539,484.46Z"/><path class="cls-29" d="M537.19,487.18a7.4,7.4,0,1,1-10.26,2.11A7.39,7.39,0,0,1,537.19,487.18Z"/><path class="cls-30" d="M427.59,407.15a13.93,13.93,0,1,1-19.3,4A13.93,13.93,0,0,1,427.59,407.15Z"/><path class="cls-29" d="M425.38,410.49a9.93,9.93,0,1,1-13.75,2.83A9.92,9.92,0,0,1,425.38,410.49Z"/><path class="cls-30" d="M917.86,531.1a18.67,18.67,0,1,0,18.67,18.67A18.67,18.67,0,0,0,917.86,531.1Z"/><circle class="cls-29" cx="917.86" cy="549.77" r="14.36"/><path class="cls-30" d="M868.57,535.49a14.28,14.28,0,1,0,14.27,14.28A14.28,14.28,0,0,0,868.57,535.49Z"/><path class="cls-29" d="M868.57,539.84a9.93,9.93,0,1,0,9.92,9.93A9.92,9.92,0,0,0,868.57,539.84Z"/><circle class="cls-30" cx="733.01" cy="549.77" r="10.66" transform="translate(-56.68 1014.46) rotate(-67.34)"/><circle class="cls-29" cx="733.01" cy="549.77" r="7.4"/><path class="cls-30" d="M749.16,284.08a18.67,18.67,0,1,0,25.36-7.34A18.66,18.66,0,0,0,749.16,284.08Z"/><path class="cls-29" d="M752.94,286.16a14.35,14.35,0,1,0,19.5-5.64A14.35,14.35,0,0,0,752.94,286.16Z"/><path class="cls-30" d="M729.22,329.38a14.27,14.27,0,1,0,19.39-5.62A14.25,14.25,0,0,0,729.22,329.38Z"/><path class="cls-29" d="M733,331.47a9.93,9.93,0,1,0,13.49-3.9A9.93,9.93,0,0,0,733,331.47Z"/><path class="cls-30" d="M667,449.84a10.66,10.66,0,1,0,14.48-4.2A10.65,10.65,0,0,0,667,449.84Z"/><path class="cls-29" d="M669.81,451.41a7.41,7.41,0,1,0,10.06-2.91A7.4,7.4,0,0,0,669.81,451.41Z"/><path class="cls-30" d="M861,376.08a18.66,18.66,0,1,0,25.86,5.31A18.66,18.66,0,0,0,861,376.08Z"/><path class="cls-29" d="M863.4,379.68a14.35,14.35,0,1,0,19.88,4.09A14.33,14.33,0,0,0,863.4,379.68Z"/><path class="cls-30" d="M711.07,484.46a10.66,10.66,0,1,0,14.77,3A10.67,10.67,0,0,0,711.07,484.46Z"/><path class="cls-29" d="M712.87,487.18a7.4,7.4,0,1,0,10.25,2.11A7.4,7.4,0,0,0,712.87,487.18Z"/><path class="cls-30" d="M822.47,407.15a13.93,13.93,0,1,0,19.3,4A13.92,13.92,0,0,0,822.47,407.15Z"/><path class="cls-29" d="M824.67,410.49a9.93,9.93,0,1,0,13.75,2.83A9.92,9.92,0,0,0,824.67,410.49Z"/><path class="cls-28" d="M625,231.46c-175.72,0-318.18,142.46-318.18,318.18S449.31,867.82,625,867.82,943.21,725.37,943.21,549.64,800.76,231.46,625,231.46Zm0,616.4c-164.7,0-298.22-133.52-298.22-298.22S460.33,251.42,625,251.42,923.25,384.94,923.25,549.64,789.73,847.86,625,847.86Z"/></g><path class="cls-31" d="M452,242H250V742h82.75A350.42,350.42,0,0,1,452,242Z"/><path class="cls-31" d="M1000,242H796A350.44,350.44,0,0,1,915.18,742H1000Z"/><g class="cls-26"><path class="cls-30" d="M129.83,0s228.05,296.4,230,300.64l-3.65,41.74h0l-41.68,16.26L0,119Z"/><polygon class="cls-32" points="341.97 301.48 103.73 23.92 96.2 86.67 95.85 86.8 336.08 326.3 341.97 301.48"/><polygon class="cls-33" points="95.85 86.8 34.37 109.88 312.61 338.96 336.08 326.3 336.08 326.3 95.85 86.8"/><path class="cls-30" d="M1120.23,0s-228,296.4-230,300.64l3.65,41.74h0l41.69,16.26L1250.06,119Z"/><polygon class="cls-32" points="908.1 301.48 1146.34 23.92 1153.86 86.67 1154.21 86.8 913.98 326.3 908.1 301.48"/><polygon class="cls-33" points="1154.21 86.8 1215.69 109.88 937.46 338.96 913.98 326.3 913.98 326.3 1154.21 86.8"/></g><g class="cls-26"><path class="cls-33" d="M713,588.12s-7.46-13.39-13.25-14.06-20-.3-20-.3l1.92,16.76,30.82-1.06Z"/><path class="cls-28" d="M707.4,586.48s-5.43-9.76-9.65-10.24-18.84-.29-18.84-.29l3.65,12.28,24.5-.77Z"/><path class="cls-33" d="M537.07,588.12s7.46-13.39,13.24-14.06,20-.3,20-.3l-1.92,16.76-30.83-1.06Z"/><path class="cls-28" d="M542.65,586.48s5.44-9.76,9.65-10.24,16.8-.29,16.8-.29l-3.65,12.28L543,587.46Z"/><path class="cls-32" d="M681.75,580.38s-6.93-22.44-10.52-25.73c-2.84-2.61-6.79-3.69-21.7-3.69H599c-14.91,0-18.86.81-21.71,3.42-3.59,3.29-10.52,26-10.52,26L564,590H684.52Z"/><path class="cls-34" d="M669.36,575.69s-3.8-12.1-5.77-13.9C662,560.36,659.87,560,651.7,560H596.87c-8.17,0-10.34.28-11.9,1.71-2,1.8-5.76,14.15-5.76,14.15L577.69,581h93.18Z"/><g class="cls-35"><g class="cls-36"><rect class="cls-27" x="578.03" y="574.96" width="92" height="1"/></g><g class="cls-36"><rect class="cls-27" x="579.03" y="569.96" width="90" height="1"/></g><g class="cls-36"><rect class="cls-27" x="579.03" y="564.96" width="90" height="1"/></g><g class="cls-36"><rect class="cls-27" x="579.03" y="559.96" width="90" height="1"/></g><g class="cls-36"><polygon class="cls-27" points="588.99 581.47 588.25 581.34 592.31 557.55 593.05 557.68 588.99 581.47"/></g><g class="cls-36"><rect class="cls-27" x="589.21" y="569.74" width="25.13" height="0.75" transform="translate(-27.89 1109.27) rotate(-84.02)"/></g><g class="cls-36"><rect class="cls-27" x="601.03" y="569.14" width="23.85" height="0.75" transform="translate(0.27 1139.31) rotate(-85.82)"/></g><g class="cls-36"><rect class="cls-27" x="624.03" y="556.96" width="1" height="26"/></g><g class="cls-36"><polygon class="cls-27" points="659.57 581.47 655.52 557.68 656.26 557.55 660.31 581.34 659.57 581.47"/></g><g class="cls-36"><rect class="cls-27" x="646.41" y="557.55" width="0.75" height="25.13" transform="translate(-56.14 70.86) rotate(-6.01)"/></g><g class="cls-36"><rect class="cls-27" x="635.34" y="558.24" width="0.75" height="24.41" transform="translate(-41.69 50.19) rotate(-4.38)"/></g></g><path class="cls-27" d="M671.55,581H577l1.71-5.66c.4-1.27,3.9-12.41,5.91-14.25,1.78-1.64,4.41-2.09,12.23-2.09H651.7c7.82,0,10.45.45,12.23,2.08,2,1.85,5.51,13,5.9,14.25Zm-93.19-1H670.2l-1.32-4.38c-1-3.36-4.1-12.4-5.63-13.8S659.94,560,651.7,560H596.87c-8.24,0-10.15.54-11.56,1.82s-4.58,10.45-5.62,13.81Z"/><ellipse class="cls-27" cx="625.03" cy="706.46" rx="406.55" ry="122.56"/><ellipse class="cls-37" cx="625.03" cy="706.46" rx="388.3" ry="117.06"/><path class="cls-32" d="M271.88,659c-.06-.66-.08-1-.08-1l.75,0s0,.33.07,1Z"/><path class="cls-32" d="M283,727.66l-.42-2,.73-.16.43,2Zm-.84-4-.41-2,.73-.15.42,2Zm-.82-4-.41-2,.74-.15.4,2Zm-.81-4-.39-2,.73-.14.4,2Zm-.78-4-.39-2,.74-.14.38,2Zm-.77-4-.37-2,.73-.14.38,2Zm-.74-4-.37-2,.74-.13.36,2Zm-.73-4-.35-2,.74-.13.35,2Zm-.7-4-.34-2,.74-.12.34,2Zm-.67-4-.33-2,.74-.12.33,2Zm-.66-4-.31-2,.74-.12.31,2Zm-.62-4-.31-2,.75-.11.3,2Zm-.6-4-.29-2,.75-.1.28,2Zm-.57-4.06-.27-2,.75-.09.27,2Zm-.53-4.06c-.09-.7-.17-1.38-.25-2l.74-.09c.08.65.17,1.32.26,2Zm-.49-4.07c-.09-.72-.16-1.39-.23-2l.74-.08c.07.63.15,1.31.23,2Zm-.45-4.07c-.08-.76-.15-1.44-.2-2l.75-.07c.05.59.12,1.27.2,2Z"/><rect class="cls-32" x="283.57" y="729.58" width="0.75" height="1" transform="translate(-147.49 76.24) rotate(-12.17)"/><ellipse class="cls-38" cx="625.03" cy="786.46" rx="388.3" ry="117.06"/><path class="cls-39" d="M218.49,706.46s0-.87.08-2.56a41.24,41.24,0,0,1,1.16-7.36,46.2,46.2,0,0,1,4.55-11.14,66.43,66.43,0,0,1,9.77-13c8.41-8.91,20.49-17.84,35.45-26s32.67-15.75,52.5-22.48A617.49,617.49,0,0,1,387.18,606c23.43-5.2,48.37-9.59,74.31-13a1276.43,1276.43,0,0,1,327.08,0c25.94,3.44,50.89,7.82,74.31,13a616.1,616.1,0,0,1,65.18,17.94c9.91,3.38,19.31,6.93,28.1,10.68s16.94,7.71,24.41,11.8c14.95,8.14,27,17.08,35.44,26a65.36,65.36,0,0,1,9.77,13,45.4,45.4,0,0,1,4.55,11.14,39.46,39.46,0,0,1,1.16,7.36c.06,1.69.09,2.56.09,2.56s0-.87-.13-2.55a39.51,39.51,0,0,0-1.28-7.33,45.21,45.21,0,0,0-4.7-11,67.07,67.07,0,0,0-9.88-12.83C1007.13,664,995,655.27,980,647.34s-32.72-15.27-52.52-21.86a614.26,614.26,0,0,0-65.1-17.4c-23.4-5-48.31-9.16-74.19-12.58A1254.65,1254.65,0,0,0,625,585.4c-55.7-.08-111.42,3.29-163.19,10.1-25.88,3.42-50.8,7.56-74.2,12.58a615,615,0,0,0-65.1,17.39c-19.8,6.6-37.56,13.88-52.52,21.87S242.93,664,234.47,672.75a67.48,67.48,0,0,0-9.88,12.83,45.61,45.61,0,0,0-4.7,11,41.14,41.14,0,0,0-1.28,7.33C218.53,705.59,218.49,706.46,218.49,706.46Z"/><path class="cls-32" d="M526.33,595.85c-.05-.69-.06-1-.06-1l.74,0s0,.31.07,1Z"/><path class="cls-32" d="M534.1,669.66l-.23-1.94.75-.09.23,1.94Zm-.45-3.88-.23-1.95.75-.08.22,1.94Zm-.45-3.88L533,660l.75-.08.22,1.94Zm-.45-3.88-.22-1.95.74-.08.23,1.94Zm-.45-3.89-.22-1.94.75-.08.22,1.94Zm-.44-3.88-.22-1.94.75-.08.22,1.94Zm-.43-3.88-.22-1.94.74-.08.22,1.94Zm-.44-3.88-.21-1.94.74-.09.22,1.95Zm-.43-3.89-.21-1.94.75-.08.21,1.94Zm-.42-3.88-.21-1.94.74-.08.21,1.94Zm-.42-3.88-.21-1.94.75-.08.2,1.94ZM529.3,627l-.2-1.94.75-.08.2,2Zm-.4-3.88-.21-1.94.75-.08.2,1.94Zm-.41-3.89-.19-1.94.74-.07.2,1.94Zm-.39-3.88-.19-1.94.74-.08.2,1.94Zm-.38-3.89-.19-1.94.74-.07.19,1.94Zm-.38-3.89-.18-1.94.75-.07.18,1.94Zm-.36-3.89-.17-1.94.75-.07.17,2Zm-.34-3.89c-.06-.74-.11-1.38-.16-1.94l.75-.06c0,.56.1,1.2.16,1.94Z"/><rect class="cls-32" x="534.39" y="671.58" width="0.75" height="1" transform="translate(-74.78 67) rotate(-6.7)"/><path class="cls-32" d="M418.33,606.85c-.05-.69-.06-1-.06-1l.74,0s0,.31.07,1Z"/><path class="cls-32" d="M426.1,680.66l-.23-1.94.75-.09.23,1.94Zm-.45-3.88-.23-1.95.75-.08.22,1.94Zm-.45-3.88L425,671l.75-.08.22,1.94Zm-.45-3.88-.22-1.95.74-.08.23,1.94Zm-.45-3.89-.22-1.94.75-.08.22,1.94Zm-.44-3.88-.22-1.94.75-.08.22,1.94Zm-.43-3.88-.22-1.94.74-.08.22,1.94Zm-.44-3.88-.21-1.94.74-.09.22,1.95Zm-.43-3.89-.21-1.94.75-.08.21,1.94Zm-.42-3.88-.21-1.94.74-.08.21,1.94Zm-.42-3.88-.21-1.94.75-.08.2,1.94ZM421.3,638l-.2-1.94.75-.08.2,2Zm-.4-3.88-.21-1.94.75-.08.2,1.94Zm-.41-3.89-.19-1.94.74-.07.2,1.94Zm-.39-3.88-.19-1.94.74-.08.2,1.94Zm-.38-3.89-.19-1.94.74-.07.19,1.94Zm-.38-3.89-.18-1.94.75-.07.18,1.94Zm-.36-3.89-.17-1.94.75-.07.17,2Zm-.34-3.89c-.06-.74-.11-1.38-.16-1.94l.75-.06c0,.56.1,1.2.16,1.94Z"/><rect class="cls-32" x="426.39" y="682.58" width="0.75" height="1" transform="translate(-76.8 54.47) rotate(-6.7)"/><path class="cls-32" d="M314.38,636.86c-.08-.66-.11-1-.11-1l.74-.08s0,.34.11,1Z"/><path class="cls-32" d="M328.47,707.48l-.49-1.94.73-.19.49,1.94Zm-1-3.88-.48-1.94.72-.18.49,1.94Zm-1-3.89-.47-1.94.72-.18.48,1.94Zm-.94-3.89-.47-1.94.73-.18.47,1.95Zm-.92-3.89-.46-1.95.73-.17.46,2Zm-.91-3.9-.44-1.95.73-.17.45,2Zm-.88-3.9-.43-2,.73-.16.44,2Zm-.85-3.91-.42-2,.73-.16.42,2Zm-.84-3.92-.41-2,.74-.15.41,2Zm-.81-3.92-.4-2,.74-.15.39,2Zm-.79-3.92-.38-2,.73-.14.39,2Zm-.76-3.93-.37-2,.73-.14.37,2Zm-.74-3.94-.36-2,.74-.14.36,2Zm-.71-3.94-.34-2,.74-.12.34,2Zm-.67-3.94-.33-2,.74-.12.32,2Zm-.65-4-.31-2,.74-.11.31,2Zm-.61-4c-.1-.7-.2-1.36-.29-2l.74-.11c.09.62.19,1.28.29,2Zm-.56-4c-.11-.74-.19-1.4-.27-2l.75-.1c.07.58.16,1.24.26,2Z"/><rect class="cls-32" x="329.08" y="709.31" width="0.75" height="1" transform="translate(-167.44 105.27) rotate(-14.52)"/><path class="cls-32" d="M624.66,671l0-2h.75l0,2Zm0-4v-2h.75v2Zm0-4v-2h.75v2Zm0-4v-2h.75v2Zm0-4v-2h.75v2Zm0-4,0-2h.75l0,2Zm0-4v-2h.75v2Zm0-4,0-2h.75l0,2Zm0-4v-2h.75v2Zm0-4v-2h.75v2Zm0-4v-2h.75v2Zm0-4v-2h.75v2Zm0-4v-2h.75v2Zm0-4v-2h.75v2Zm0-4,0-2h.75l0,2Zm0-4v-2H625v2Zm0-4,0-2H625l0,2Zm0-4v-2H625v2Zm0-4v-2H625v2Zm0-4v-2h.75v2Zm0-4v-2h.75v2Z"/><path class="cls-32" d="M723.73,595.85l-.75-.05c0-.68.07-1,.07-1l.75,0S723.78,595.16,723.73,595.85Z"/><path class="cls-32" d="M716,669.66l-.74-.09.23-1.94.74.09Zm.46-3.88-.75-.09.23-1.94.74.08Zm.45-3.89-.75-.08.23-1.94.74.08Zm.44-3.87-.74-.09.22-1.94.75.08Zm.45-3.89-.74-.08.22-1.94.74.08Zm.44-3.88-.75-.08.22-1.94.75.08Zm.44-3.88-.75-.08.22-1.94.75.08Zm.43-3.88-.74-.09.21-1.94.75.09Zm.43-3.89-.75-.08.22-1.94.74.08Zm.43-3.88-.75-.08.21-1.94.75.08Zm.42-3.88-.75-.08.21-1.94.74.08Zm.41-3.89-.75-.08.21-1.94.75.08Zm.41-3.88-.75-.08.2-1.94.75.08Zm.4-3.89-.75-.07.2-1.94.75.07Zm.39-3.88-.74-.08.19-1.94.75.08Zm.39-3.89-.75-.07.19-1.94.75.07Zm.37-3.89-.74-.07.18-1.94.74.07Zm.36-3.89-.74-.06.17-2,.75.07Zm.34-3.89-.75-.06.16-1.94.75.06Z"/><rect class="cls-32" x="714.8" y="671.71" width="1" height="0.75" transform="translate(-36.05 1303.6) rotate(-83.26)"/><path class="cls-32" d="M831.73,606.85l-.75-.05c0-.68.07-1,.07-1l.75,0S831.78,606.16,831.73,606.85Z"/><path class="cls-32" d="M824,680.66l-.74-.09.23-1.94.74.09Zm.46-3.88-.75-.09.23-1.94.74.08Zm.45-3.89-.75-.08.23-1.94.74.08Zm.44-3.87-.74-.09.22-1.94.75.08Zm.45-3.89-.74-.08.22-1.94.74.08Zm.44-3.88-.75-.08.22-1.94.75.08Zm.44-3.88-.75-.08.22-1.94.75.08Zm.43-3.88-.74-.09.21-1.94.75.09Zm.43-3.89-.75-.08.22-1.94.74.08Zm.43-3.88-.75-.08.21-1.94.75.08Zm.42-3.88-.75-.08.21-1.94.74.08Zm.41-3.89-.75-.08.21-1.94.75.08Zm.41-3.88-.75-.08.2-1.94.75.08Zm.4-3.89-.75-.07.2-1.94.75.07Zm.39-3.88-.74-.08.19-1.94.75.08Zm.39-3.89-.75-.07.19-1.94.75.07Zm.37-3.89-.74-.07.18-1.94.74.07Zm.36-3.89-.74-.06.17-2,.75.07Zm.34-3.89-.75-.06.16-1.94.75.06Z"/><rect class="cls-32" x="822.8" y="682.71" width="1" height="0.75" transform="translate(48.36 1420.56) rotate(-83.26)"/><path class="cls-32" d="M935.69,636.86l-.75-.08c.08-.65.11-1,.11-1l.75.08S935.76,636.2,935.69,636.86Z"/><path class="cls-32" d="M921.59,707.48l-.72-.19.49-1.94.72.19Zm1-3.88-.72-.18.48-1.94.73.18Zm1-3.89-.72-.18.47-1.94.73.18Zm1-3.89-.73-.17.46-1.95.73.18Zm.92-3.89-.73-.17.45-2,.73.17Zm.9-3.9-.73-.17.44-2,.73.17Zm.88-3.9-.73-.17.43-2,.73.16Zm.86-3.91-.73-.16.41-2,.74.16Zm.83-3.92-.73-.15.41-2,.73.15Zm.82-3.92-.74-.15.4-2,.73.15Zm.78-3.92-.73-.15.38-2,.74.14Zm.77-3.93-.74-.14.37-2,.74.13Zm.73-3.93-.73-.14c.12-.67.24-1.32.35-2l.74.14C932.22,659.27,932.1,659.93,932,660.6Zm.71-4-.74-.13.35-2,.73.12Zm.68-3.94-.74-.12.33-2,.74.12Zm.64-4-.74-.12.31-2,.74.11Zm.61-4-.74-.11c.11-.7.2-1.36.29-2l.74.11C934.81,643.44,934.72,644.1,934.61,644.8Zm.57-4-.74-.1c.1-.74.18-1.4.26-2l.74.1C935.37,639.43,935.28,640.09,935.18,640.83Z"/><rect class="cls-32" x="920.1" y="709.43" width="1" height="0.75" transform="translate(3.25 1423.82) rotate(-75.53)"/><path class="cls-30" d="M507.26,607.4a7.5,7.5,0,1,1-8.28-6.64A7.5,7.5,0,0,1,507.26,607.4Z"/><path class="cls-40" d="M506.15,607.52a6.38,6.38,0,1,1-7-5.65A6.38,6.38,0,0,1,506.15,607.52Z"/><polygon class="cls-41" points="501.31 605.12 498.74 608.33 500.3 609.22 501.31 605.12"/><path class="cls-30" d="M525.19,606.86a7.51,7.51,0,1,1-7.79-7.22A7.51,7.51,0,0,1,525.19,606.86Z"/><path class="cls-40" d="M524.07,606.9a6.38,6.38,0,1,1-6.62-6.13A6.38,6.38,0,0,1,524.07,606.9Z"/><polygon class="cls-42" points="518.3 609.65 518.55 605.54 516.77 605.71 518.3 609.65"/><path class="cls-30" d="M488.38,609.47a7.51,7.51,0,1,1-8.28-6.64A7.51,7.51,0,0,1,488.38,609.47Z"/><path class="cls-40" d="M487.26,609.59a6.38,6.38,0,1,1-7-5.65A6.38,6.38,0,0,1,487.26,609.59Z"/><polygon class="cls-43" points="478.95 607.32 480.49 611.13 482.03 610.21 478.95 607.32"/><path class="cls-30" d="M552.8,603.74a4,4,0,1,1-3.36-4.62A4.05,4.05,0,0,1,552.8,603.74Z"/><path class="cls-44" d="M551.59,603.55a2.81,2.81,0,1,1-2.34-3.22A2.82,2.82,0,0,1,551.59,603.55Z"/><path class="cls-30" d="M564.22,602.93a4,4,0,1,1-3.36-4.62A4.05,4.05,0,0,1,564.22,602.93Z"/><path class="cls-45" d="M563,602.74a2.81,2.81,0,1,1-2.34-3.22A2.83,2.83,0,0,1,563,602.74Z"/><path class="cls-30" d="M540.62,605a4,4,0,1,1-3.36-4.62A4,4,0,0,1,540.62,605Z"/><path class="cls-43" d="M539.41,604.81a2.81,2.81,0,1,1-2.34-3.22A2.81,2.81,0,0,1,539.41,604.81Z"/><path class="cls-30" d="M553.8,618.74a4,4,0,1,1-3.36-4.62A4.05,4.05,0,0,1,553.8,618.74Z"/><path class="cls-46" d="M552.59,618.55a2.81,2.81,0,1,1-2.34-3.22A2.82,2.82,0,0,1,552.59,618.55Z"/><path class="cls-30" d="M565.22,617.93a4,4,0,1,1-3.36-4.62A4.05,4.05,0,0,1,565.22,617.93Z"/><path class="cls-47" d="M564,617.74a2.81,2.81,0,1,1-2.34-3.22A2.83,2.83,0,0,1,564,617.74Z"/><path class="cls-30" d="M541.62,620a4,4,0,1,1-3.36-4.62A4,4,0,0,1,541.62,620Z"/><path class="cls-48" d="M540.41,619.81a2.81,2.81,0,1,1-2.34-3.22A2.81,2.81,0,0,1,540.41,619.81Z"/><path class="cls-30" d="M510,624.19a4,4,0,1,1-3.36-4.62A4,4,0,0,1,510,624.19Z"/><path class="cls-47" d="M508.83,624a2.81,2.81,0,1,1-2.34-3.22A2.82,2.82,0,0,1,508.83,624Z"/><path class="cls-30" d="M496,625.19a4,4,0,1,1-3.36-4.62A4,4,0,0,1,496,625.19Z"/><path class="cls-47" d="M494.83,625a2.81,2.81,0,1,1-2.34-3.22A2.82,2.82,0,0,1,494.83,625Z"/><path class="cls-32" d="M530.19,631.73l-.11-.74,2-.28.1.75Zm189.49-.06-2-.23.09-.75,2,.23Zm-4-.45-2-.22.08-.75,2,.22Zm-181.55,0-.1-.75,2-.25.09.75Zm177.58-.41-2-.21.07-.75,2,.21Zm-173.61-.08L538,630l2-.23.08.74Zm169.63-.33-2-.2.07-.75,2,.2Zm-165.66-.12-.08-.74,2-.22.08.75ZM703.78,630l-2-.19.07-.75,2,.19Zm-157.7-.15-.08-.74,2-.2.08.75Zm153.72-.23-2-.17.06-.75,2,.18Zm-149.74-.16-.07-.74,2-.19.07.75Zm145.76-.19-2-.17.07-.74,2,.17ZM554,629.09l-.07-.75,2-.17.06.75Zm137.79-.16-2-.16.06-.75,2,.16ZM558,628.75,558,628l2-.16.06.75Zm129.82-.13-2-.15.06-.75,2,.15ZM562,628.44l-.06-.75,2-.15,0,.75Zm121.85-.12-2-.14,0-.75,2,.15ZM566,628.14l-.06-.74,2-.14,0,.74Zm113.87-.09-2-.13,0-.75,2,.13ZM570,627.87l0-.75,2-.12,0,.74Zm105.89-.08-2-.12,0-.75,2,.12ZM574,627.62l-.05-.75,2-.11.05.75Zm97.91-.07-2-.11,0-.75,2,.12ZM578,627.39l0-.74,2-.11,0,.75Zm89.92,0-2-.1,0-.75,2,.1ZM582,627.19l0-.75,2-.1,0,.75Zm81.94-.05-2-.09,0-.75,2,.09ZM586,627l0-.75,2-.09,0,.75Zm73.95,0-1.92-.08-.07-.38.1-.37,1.92.08Zm-70-.13,0-.75,2-.08,0,.75Zm66,0-2-.08,0-.75,2,.08Zm-62-.12,0-.75,2-.07,0,.75Zm58,0-2-.06,0-.75,2,.06Zm-54-.1,0-.75,2-.06,0,.75Zm50,0-2-.06,0-.75,2,.06Zm-46-.09,0-.75,2-.05,0,.75Zm42,0-2,0,0-.75,2,0Zm-38-.07v-.75l2,0v.75Zm34,0-2,0v-.75l2,0Zm-30-.06v-.75l2,0v.75Zm26,0-2,0v-.75l2,0Zm-22,0v-.75l2,0v.75Zm18,0-2,0v-.75l2,0Zm-14,0v-.75h2v.75Zm10,0h-2v-.75h2Zm-5.95,0,0-.75h2v.75Z"/><polygon class="cls-30" points="352.31 656.04 328.79 662.28 322.29 640.67 345.51 635.45 352.31 656.04"/><path class="cls-33" d="M347.4,646.1c.8,4.78-2.91,9.37-8.28,10.27s-10.37-2.24-11.17-7,2.91-9.37,8.28-10.27S346.6,641.33,347.4,646.1Z"/><path class="cls-29" d="M325.27,641.24c0,.23-.23.47-.61.53s-.71-.07-.75-.3.24-.47.61-.53S325.23,641,325.27,641.24Z"/><path class="cls-29" d="M345.2,637.15c0,.23-.24.47-.61.53s-.72-.07-.76-.3.24-.46.62-.53S345.16,636.93,345.2,637.15Z"/><path class="cls-29" d="M351.33,655c0,.23-.23.46-.61.53s-.71-.08-.75-.31.24-.46.61-.52S351.29,654.8,351.33,655Z"/><path class="cls-29" d="M330.25,659.31c0,.23-.24.46-.62.52s-.71-.07-.75-.3.24-.46.61-.53S330.21,659.08,330.25,659.31Z"/><path class="cls-40" d="M336.36,639.88c-4.86.81-8.24,4.88-7.53,9.1a6.79,6.79,0,0,0,1.2,2.87L345,642.79A9.15,9.15,0,0,0,336.36,639.88Z"/><path class="cls-46" d="M330,651.85a9,9,0,0,0,8.88,3.29c4.87-.82,8.24-4.89,7.53-9.11a6.85,6.85,0,0,0-1.49-3.24Z"/><path class="cls-30" d="M339,674.19a4,4,0,1,1-3.36-4.62A4,4,0,0,1,339,674.19Z"/><path class="cls-41" d="M337.83,674a2.81,2.81,0,1,1-2.34-3.22A2.82,2.82,0,0,1,337.83,674Z"/><path class="cls-30" d="M341,686.19a4,4,0,1,1-3.36-4.62A4,4,0,0,1,341,686.19Z"/><path class="cls-41" d="M339.83,686a2.81,2.81,0,1,1-2.34-3.22A2.82,2.82,0,0,1,339.83,686Z"/><path class="cls-30" d="M548.45,656.56a5.38,5.38,0,1,1-5.37-5.38A5.36,5.36,0,0,1,548.45,656.56Z"/><path class="cls-29" d="M548.45,655.79a5.38,5.38,0,1,1-5.37-5.37A5.37,5.37,0,0,1,548.45,655.79Z"/><path class="cls-46" d="M546.84,655.79a3.77,3.77,0,1,1-3.76-3.76A3.76,3.76,0,0,1,546.84,655.79Z"/><path class="cls-49" d="M546.84,655a3.77,3.77,0,1,1-3.76-3.77A3.76,3.76,0,0,1,546.84,655Z"/><path class="cls-30" d="M483.53,636.21l4.75,27s22.5,1.5,40-4.5l-3-27S509.53,629.46,483.53,636.21Z"/><path class="cls-29" d="M487.72,638.3l3.86,22s18.29,1.22,32.52-3.66l-2.44-22S508.85,632.81,487.72,638.3Z"/><path class="cls-50" d="M489.73,639.3l3.43,19.52s16.27,1.09,28.93-3.25L519.92,636S508.53,634.42,489.73,639.3Z"/><rect class="cls-30" x="536.03" y="635.96" width="6" height="9" rx="2.75" ry="2.75"/><path class="cls-29" d="M541,642a2,2,0,0,1-2,2h0a2,2,0,0,1-2-2v-3a2,2,0,0,1,2-2h0a2,2,0,0,1,2,2Z"/><rect class="cls-30" x="547.03" y="634.96" width="6" height="9" rx="2.75" ry="2.75"/><path class="cls-29" d="M552,641a2,2,0,0,1-2,2h0a2,2,0,0,1-2-2v-3a2,2,0,0,1,2-2h0a2,2,0,0,1,2,2Z"/><rect class="cls-30" x="558.03" y="633.96" width="6" height="9" rx="2.75" ry="2.75"/><path class="cls-29" d="M563,640a2,2,0,0,1-2,2h0a2,2,0,0,1-2-2v-3a2,2,0,0,1,2-2h0a2,2,0,0,1,2,2Z"/><path class="cls-30" d="M522.16,622.47a4.08,4.08,0,1,1-4.08-4.08A4.08,4.08,0,0,1,522.16,622.47Z"/><path class="cls-29" d="M522.16,621.89a4.08,4.08,0,1,1-4.08-4.09A4.08,4.08,0,0,1,522.16,621.89Z"/><path class="cls-46" d="M520.94,621.89a2.86,2.86,0,1,1-2.86-2.87A2.86,2.86,0,0,1,520.94,621.89Z"/><path class="cls-49" d="M520.94,621.3a2.86,2.86,0,1,1-2.86-2.86A2.86,2.86,0,0,1,520.94,621.3Z"/><path class="cls-30" d="M363.16,636.47a4.08,4.08,0,1,1-4.08-4.08A4.08,4.08,0,0,1,363.16,636.47Z"/><path class="cls-29" d="M363.16,635.89a4.08,4.08,0,1,1-4.08-4.09A4.08,4.08,0,0,1,363.16,635.89Z"/><path class="cls-46" d="M361.94,635.89a2.86,2.86,0,1,1-2.86-2.87A2.86,2.86,0,0,1,361.94,635.89Z"/><path class="cls-49" d="M361.94,635.3a2.86,2.86,0,1,1-2.86-2.86A2.86,2.86,0,0,1,361.94,635.3Z"/><path class="cls-30" d="M366.16,649.47a4.08,4.08,0,1,1-4.08-4.08A4.08,4.08,0,0,1,366.16,649.47Z"/><path class="cls-29" d="M366.16,648.89a4.08,4.08,0,1,1-4.08-4.09A4.08,4.08,0,0,1,366.16,648.89Z"/><path class="cls-46" d="M364.94,648.89a2.86,2.86,0,1,1-2.86-2.87A2.86,2.86,0,0,1,364.94,648.89Z"/><path class="cls-49" d="M364.94,648.3a2.86,2.86,0,1,1-2.86-2.86A2.86,2.86,0,0,1,364.94,648.3Z"/><path class="cls-30" d="M562.16,653.47a4.08,4.08,0,1,1-4.08-4.08A4.08,4.08,0,0,1,562.16,653.47Z"/><path class="cls-29" d="M562.16,652.89a4.08,4.08,0,1,1-4.08-4.09A4.08,4.08,0,0,1,562.16,652.89Z"/><path class="cls-46" d="M560.94,652.89a2.86,2.86,0,1,1-2.86-2.87A2.86,2.86,0,0,1,560.94,652.89Z"/><path class="cls-49" d="M560.94,652.3a2.86,2.86,0,1,1-2.86-2.86A2.86,2.86,0,0,1,560.94,652.3Z"/><path class="cls-30" d="M431.35,644.58l5.19,26.92s22.53,1.13,39.93-5.16l-3.45-27S457.24,637.4,431.35,644.58Z"/><path class="cls-29" d="M435.57,646.6l4.22,21.88s18.31.92,32.46-4.19l-2.8-21.91S456.62,640.76,435.57,646.6Z"/><path class="cls-50" d="M437.6,647.56,441.35,667s16.29.82,28.87-3.73l-2.49-19.48S456.32,642.38,437.6,647.56Z"/><path class="cls-30" d="M481,627a4,4,0,1,1-3-4.86A4,4,0,0,1,481,627Z"/><path class="cls-47" d="M479.84,626.76a2.81,2.81,0,1,1-2.08-3.39A2.8,2.8,0,0,1,479.84,626.76Z"/><rect class="cls-30" x="438.53" y="627.46" width="6" height="9" rx="2.75" ry="2.75" transform="translate(-84.46 68.35) rotate(-8.08)"/><path class="cls-29" d="M443.72,633.16a2,2,0,0,1-1.69,2.27h0a2,2,0,0,1-2.27-1.7l-.42-3a2,2,0,0,1,1.7-2.26h0a2,2,0,0,1,2.26,1.69Z"/><rect class="cls-30" x="428.53" y="629.46" width="6" height="9" rx="2.75" ry="2.75" transform="translate(-84.84 66.96) rotate(-8.08)"/><path class="cls-29" d="M433.72,635.16a2,2,0,0,1-1.69,2.27h0a2,2,0,0,1-2.27-1.7l-.42-3a2,2,0,0,1,1.7-2.26h0a2,2,0,0,1,2.26,1.69Z"/><rect class="cls-30" x="448.53" y="626.46" width="6" height="9" rx="2.75" ry="2.75" transform="translate(-84.22 69.74) rotate(-8.08)"/><path class="cls-29" d="M453.72,632.16a2,2,0,0,1-1.69,2.27h0a2,2,0,0,1-2.27-1.7l-.42-3a2,2,0,0,1,1.7-2.26h0a2,2,0,0,1,2.26,1.69Z"/><rect class="cls-30" x="458.53" y="624.46" width="6" height="9" rx="2.75" ry="2.75" transform="translate(-83.84 71.13) rotate(-8.08)"/><path class="cls-29" d="M463.72,630.16a2,2,0,0,1-1.69,2.27h0a2,2,0,0,1-2.27-1.7l-.42-3a2,2,0,0,1,1.7-2.26h0a2,2,0,0,1,2.26,1.69Z"/><path class="cls-30" d="M435.16,617.47a4.08,4.08,0,1,1-4.08-4.08A4.08,4.08,0,0,1,435.16,617.47Z"/><path class="cls-29" d="M435.16,616.89a4.08,4.08,0,1,1-4.08-4.09A4.08,4.08,0,0,1,435.16,616.89Z"/><path class="cls-46" d="M433.94,616.89a2.86,2.86,0,1,1-2.86-2.87A2.86,2.86,0,0,1,433.94,616.89Z"/><path class="cls-49" d="M433.94,616.3a2.86,2.86,0,1,1-2.86-2.86A2.86,2.86,0,0,1,433.94,616.3Z"/><path class="cls-30" d="M449.16,614.47a4.08,4.08,0,1,1-4.08-4.08A4.08,4.08,0,0,1,449.16,614.47Z"/><path class="cls-29" d="M449.16,613.89a4.08,4.08,0,1,1-4.08-4.09A4.08,4.08,0,0,1,449.16,613.89Z"/><path class="cls-51" d="M447.94,613.89a2.86,2.86,0,1,1-2.86-2.87A2.86,2.86,0,0,1,447.94,613.89Z"/><path class="cls-42" d="M447.94,613.3a2.86,2.86,0,1,1-2.86-2.86A2.86,2.86,0,0,1,447.94,613.3Z"/><path class="cls-30" d="M462.16,612.47a4.08,4.08,0,1,1-4.08-4.08A4.08,4.08,0,0,1,462.16,612.47Z"/><path class="cls-29" d="M462.16,611.89a4.08,4.08,0,1,1-4.08-4.09A4.08,4.08,0,0,1,462.16,611.89Z"/><path class="cls-43" d="M460.94,611.89a2.86,2.86,0,1,1-2.86-2.87A2.86,2.86,0,0,1,460.94,611.89Z"/><path class="cls-47" d="M460.94,611.3a2.86,2.86,0,1,1-2.86-2.86A2.86,2.86,0,0,1,460.94,611.3Z"/><path class="cls-30" d="M371.35,624.47l5.48,26.43s22.89-1.56,39.31-9.53l-4.09-24.8S397.19,615.74,371.35,624.47Z"/><path class="cls-29" d="M375.73,626.11l4.47,21.34s18.5-1.18,31.93-7.61l-3.29-20.29S396.65,618.93,375.73,626.11Z"/><path class="cls-50" d="M377.82,626.89l4,18.92s16.41-1,28.4-6.71L407.28,621S396.4,620.46,377.82,626.89Z"/><rect class="cls-30" x="390.53" y="653.46" width="6" height="9" rx="2.75" ry="2.75" transform="translate(-88.59 61.86) rotate(-8.08)"/><path class="cls-29" d="M395.72,659.16a2,2,0,0,1-1.69,2.27h0a2,2,0,0,1-2.27-1.7l-.42-3a2,2,0,0,1,1.7-2.26h0a2,2,0,0,1,2.26,1.69Z"/><rect class="cls-30" x="380.53" y="655.46" width="6" height="9" rx="2.75" ry="2.75" transform="translate(-88.97 60.47) rotate(-8.08)"/><path class="cls-29" d="M385.72,661.16a2,2,0,0,1-1.69,2.27h0a2,2,0,0,1-2.27-1.7l-.42-3a2,2,0,0,1,1.7-2.26h0a2,2,0,0,1,2.26,1.69Z"/><rect class="cls-30" x="400.53" y="652.46" width="6" height="9" rx="2.75" ry="2.75" transform="translate(-88.35 63.25) rotate(-8.08)"/><path class="cls-29" d="M405.72,658.16a2,2,0,0,1-1.69,2.27h0a2,2,0,0,1-2.27-1.7l-.42-3a2,2,0,0,1,1.7-2.26h0a2,2,0,0,1,2.26,1.69Z"/><rect class="cls-30" x="410.53" y="650.46" width="6" height="9" rx="2.75" ry="2.75" transform="translate(-87.97 64.64) rotate(-8.08)"/><path class="cls-29" d="M415.72,656.16a2,2,0,0,1-1.69,2.27h0a2,2,0,0,1-2.27-1.7l-.42-3a2,2,0,0,1,1.7-2.26h0a2,2,0,0,1,2.26,1.69Z"/><rect class="cls-30" x="392.53" y="667.46" width="6" height="9" rx="2.75" ry="2.75" transform="matrix(0.99, -0.14, 0.14, 0.99, -90.54, 62.28)"/><path class="cls-29" d="M397.72,673.16a2,2,0,0,1-1.69,2.27h0a2,2,0,0,1-2.27-1.7l-.42-3a2,2,0,0,1,1.7-2.26h0a2,2,0,0,1,2.26,1.69Z"/><rect class="cls-30" x="382.53" y="669.46" width="6" height="9" rx="2.75" ry="2.75" transform="translate(-90.92 60.89) rotate(-8.08)"/><path class="cls-29" d="M387.72,675.16a2,2,0,0,1-1.69,2.27h0a2,2,0,0,1-2.27-1.7l-.42-3a2,2,0,0,1,1.7-2.26h0a2,2,0,0,1,2.26,1.69Z"/><rect class="cls-30" x="402.53" y="666.46" width="6" height="9" rx="2.75" ry="2.75" transform="translate(-90.3 63.67) rotate(-8.08)"/><path class="cls-29" d="M407.72,672.16a2,2,0,0,1-1.69,2.27h0a2,2,0,0,1-2.27-1.7l-.42-3a2,2,0,0,1,1.7-2.26h0a2,2,0,0,1,2.26,1.69Z"/><rect class="cls-30" x="412.53" y="664.46" width="6" height="9" rx="2.75" ry="2.75" transform="translate(-89.92 65.06) rotate(-8.08)"/><path class="cls-29" d="M417.72,670.16a2,2,0,0,1-1.69,2.27h0a2,2,0,0,1-2.27-1.7l-.42-3a2,2,0,0,1,1.7-2.26h0a2,2,0,0,1,2.26,1.69Z"/><rect class="cls-30" x="311.53" y="676.79" width="6" height="9" rx="2.75" ry="2.75" transform="matrix(0.99, -0.14, 0.14, 0.99, -92.65, 50.98)"/><path class="cls-29" d="M316.72,682.5a2,2,0,0,1-1.69,2.26h0a2,2,0,0,1-2.27-1.7l-.42-3a2,2,0,0,1,1.7-2.26h0a2,2,0,0,1,2.26,1.7Z"/><rect class="cls-30" x="315.53" y="692.46" width="6" height="9" rx="2.75" ry="2.75" transform="translate(-94.82 51.7) rotate(-8.08)"/><path class="cls-29" d="M320.72,698.16a2,2,0,0,1-1.69,2.27h0a2,2,0,0,1-2.27-1.7l-.42-3a2,2,0,0,1,1.7-2.26h0a2,2,0,0,1,2.26,1.69Z"/><rect class="cls-30" x="307.53" y="661.13" width="6" height="9" rx="2.75" ry="2.75" transform="translate(-90.49 50.27) rotate(-8.08)"/><path class="cls-29" d="M312.72,666.83a2,2,0,0,1-1.69,2.26h0a2,2,0,0,1-2.27-1.69l-.42-3a2,2,0,0,1,1.7-2.26h0a2,2,0,0,1,2.26,1.7Z"/><rect class="cls-30" x="305.53" y="645.46" width="6" height="9" rx="2.75" ry="2.75" transform="translate(-88.31 49.83) rotate(-8.08)"/><path class="cls-29" d="M310.72,651.16a2,2,0,0,1-1.69,2.27h0a2,2,0,0,1-2.27-1.7l-.42-3a2,2,0,0,1,1.7-2.26h0a2,2,0,0,1,2.26,1.69Z"/><path class="cls-30" d="M350,671a4,4,0,1,1-3-4.86A4,4,0,0,1,350,671Z"/><path class="cls-47" d="M348.84,670.76a2.81,2.81,0,1,1-2.08-3.39A2.8,2.8,0,0,1,348.84,670.76Z"/><path class="cls-30" d="M353,684a4,4,0,1,1-3-4.86A4,4,0,0,1,353,684Z"/><path class="cls-47" d="M351.84,683.76a2.81,2.81,0,1,1-2.08-3.39A2.8,2.8,0,0,1,351.84,683.76Z"/><polygon class="cls-30" points="353.14 663.09 357.48 685.17 377.82 679.07 372.7 657.56 353.14 663.09"/><rect class="cls-30" x="300.53" y="683.79" width="6" height="9" rx="2.75" ry="2.75" transform="translate(-93.75 49.51) rotate(-8.08)"/><path class="cls-29" d="M305.72,689.5a2,2,0,0,1-1.69,2.26h0a2,2,0,0,1-2.27-1.7l-.42-3a2,2,0,0,1,1.7-2.26h0a2,2,0,0,1,2.26,1.7Z"/><rect class="cls-30" x="304.53" y="699.46" width="6" height="9" rx="2.75" ry="2.75" transform="translate(-95.91 50.22) rotate(-8.08)"/><path class="cls-29" d="M309.72,705.16a2,2,0,0,1-1.69,2.27h0a2,2,0,0,1-2.27-1.7l-.42-3a2,2,0,0,1,1.7-2.26h0a2,2,0,0,1,2.26,1.69Z"/><rect class="cls-30" x="296.53" y="668.13" width="6" height="9" rx="2.75" ry="2.75" transform="matrix(0.99, -0.14, 0.14, 0.99, -91.58, 48.79)"/><path class="cls-29" d="M301.72,673.83a2,2,0,0,1-1.69,2.26h0a2,2,0,0,1-2.27-1.69l-.42-3a2,2,0,0,1,1.7-2.26h0a2,2,0,0,1,2.26,1.7Z"/><rect class="cls-30" x="294.53" y="652.46" width="6" height="9" rx="2.75" ry="2.75" transform="translate(-89.4 48.35) rotate(-8.08)"/><path class="cls-29" d="M299.72,658.16a2,2,0,0,1-1.69,2.27h0a2,2,0,0,1-2.27-1.7l-.42-3a2,2,0,0,1,1.7-2.26h0a2,2,0,0,1,2.26,1.69Z"/><rect class="cls-30" x="289.53" y="690.79" width="6" height="9" rx="2.75" ry="2.75" transform="translate(-94.84 48.03) rotate(-8.08)"/><path class="cls-29" d="M294.72,696.5a2,2,0,0,1-1.69,2.26h0a2,2,0,0,1-2.27-1.7l-.42-3a2,2,0,0,1,1.7-2.26h0a2,2,0,0,1,2.26,1.7Z"/><rect class="cls-30" x="293.53" y="706.46" width="6" height="9" rx="2.75" ry="2.75" transform="translate(-97 48.75) rotate(-8.08)"/><path class="cls-29" d="M298.72,712.16a2,2,0,0,1-1.69,2.27h0a2,2,0,0,1-2.27-1.7l-.42-3a2,2,0,0,1,1.7-2.26h0a2,2,0,0,1,2.26,1.69Z"/><rect class="cls-30" x="285.53" y="675.13" width="6" height="9" rx="2.75" ry="2.75" transform="translate(-92.68 47.31) rotate(-8.08)"/><path class="cls-29" d="M290.72,680.83a2,2,0,0,1-1.69,2.26h0a2,2,0,0,1-2.27-1.69l-.42-3a2,2,0,0,1,1.7-2.26h0a2,2,0,0,1,2.26,1.7Z"/><rect class="cls-30" x="283.53" y="659.46" width="6" height="9" rx="2.75" ry="2.75" transform="translate(-90.49 46.87) rotate(-8.08)"/><path class="cls-29" d="M288.72,665.16a2,2,0,0,1-1.69,2.27h0a2,2,0,0,1-2.27-1.7l-.42-3a2,2,0,0,1,1.7-2.26h0a2,2,0,0,1,2.26,1.69Z"/><path class="cls-33" d="M268.6,665.48s9,62.14,9.51,65.09L250,751.8,234.17,699S252.85,675,268.6,665.48Z"/><path class="cls-32" d="M978.19,659l-.75-.06c.06-.65.08-1,.08-1l.75.06S978.24,658.32,978.19,659Z"/><path class="cls-32" d="M967,727.66l-.73-.16.42-2,.73.16Zm.84-4-.73-.15.41-2,.37,0,.36.11Zm.83-4-.74-.15.41-2,.73.15Zm.8-4-.73-.15.39-2,.74.14Zm.79-4-.74-.14.39-2,.73.14Zm.76-4-.73-.14.37-2,.74.14Zm.75-4-.74-.13.36-2,.74.13Zm.72-4-.74-.13.36-2,.74.13Zm.7-4-.74-.13.34-2,.74.12Zm.68-4-.74-.12.33-2,.74.12Zm.66-4.1-.75-.06.32-2,.74.12Zm.62-4-.74-.11.3-2,.74.11Zm.59-4-.74-.11c.1-.69.2-1.36.29-2l.74.1C976,678,975.86,678.63,975.76,679.32Zm.57-4.06-.74-.1c.09-.69.18-1.37.27-2l.74.09C976.52,673.89,976.43,674.56,976.33,675.26Zm.54-4.06-.75-.09.25-2,.75.09Zm.49-4.07-.75-.08c.09-.72.16-1.4.23-2l.75.08C977.52,665.74,977.44,666.41,977.36,667.13Zm.44-4.07-.74-.08c.08-.76.14-1.44.2-2l.75.07Q977.92,661.92,977.8,663.06Z"/><polygon class="cls-32" points="966.38 730.65 965.65 730.49 965.86 729.51 966.59 729.67 966.38 730.65"/><path class="cls-30" d="M742.8,607.4a7.5,7.5,0,1,0,8.28-6.64A7.51,7.51,0,0,0,742.8,607.4Z"/><path class="cls-40" d="M743.92,607.52a6.38,6.38,0,1,0,7-5.65A6.37,6.37,0,0,0,743.92,607.52Z"/><polygon class="cls-41" points="748.75 605.12 751.32 608.33 749.76 609.22 748.75 605.12"/><path class="cls-30" d="M724.87,606.86a7.51,7.51,0,1,0,7.79-7.22A7.52,7.52,0,0,0,724.87,606.86Z"/><path class="cls-40" d="M726,606.9a6.38,6.38,0,1,0,6.62-6.13A6.37,6.37,0,0,0,726,606.9Z"/><polygon class="cls-42" points="731.77 609.65 731.51 605.54 733.3 605.71 731.77 609.65"/><path class="cls-30" d="M761.69,609.47a7.5,7.5,0,1,0,8.28-6.64A7.5,7.5,0,0,0,761.69,609.47Z"/><path class="cls-40" d="M762.8,609.59a6.39,6.39,0,1,0,7.05-5.65A6.4,6.4,0,0,0,762.8,609.59Z"/><polygon class="cls-43" points="771.11 607.32 769.57 611.13 768.04 610.21 771.11 607.32"/><path class="cls-30" d="M697.27,603.74a4,4,0,1,0,3.35-4.62A4,4,0,0,0,697.27,603.74Z"/><path class="cls-44" d="M698.48,603.55a2.81,2.81,0,1,0,2.33-3.22A2.81,2.81,0,0,0,698.48,603.55Z"/><path class="cls-30" d="M685.85,602.93a4,4,0,1,0,3.36-4.62A4,4,0,0,0,685.85,602.93Z"/><path class="cls-45" d="M687.06,602.74a2.81,2.81,0,1,0,2.34-3.22A2.81,2.81,0,0,0,687.06,602.74Z"/><path class="cls-30" d="M709.44,605a4,4,0,1,0,3.36-4.62A4,4,0,0,0,709.44,605Z"/><path class="cls-43" d="M710.65,604.81a2.81,2.81,0,1,0,2.34-3.22A2.82,2.82,0,0,0,710.65,604.81Z"/><path class="cls-30" d="M696.27,618.74a4,4,0,1,0,3.35-4.62A4,4,0,0,0,696.27,618.74Z"/><path class="cls-46" d="M697.48,618.55a2.81,2.81,0,1,0,2.33-3.22A2.81,2.81,0,0,0,697.48,618.55Z"/><path class="cls-30" d="M684.85,617.93a4,4,0,1,0,3.36-4.62A4,4,0,0,0,684.85,617.93Z"/><path class="cls-47" d="M686.06,617.74a2.81,2.81,0,1,0,2.34-3.22A2.81,2.81,0,0,0,686.06,617.74Z"/><path class="cls-30" d="M708.44,620a4,4,0,1,0,3.36-4.62A4,4,0,0,0,708.44,620Z"/><path class="cls-48" d="M709.65,619.81a2.81,2.81,0,1,0,2.34-3.22A2.82,2.82,0,0,0,709.65,619.81Z"/><path class="cls-30" d="M740,624.19a4,4,0,1,0,3.35-4.62A4,4,0,0,0,740,624.19Z"/><path class="cls-47" d="M741.24,624a2.81,2.81,0,1,0,2.34-3.22A2.81,2.81,0,0,0,741.24,624Z"/><path class="cls-30" d="M754,625.19a4,4,0,1,0,3.35-4.62A4,4,0,0,0,754,625.19Z"/><path class="cls-47" d="M755.24,625a2.81,2.81,0,1,0,2.34-3.22A2.81,2.81,0,0,0,755.24,625Z"/><polygon class="cls-30" points="897.75 656.04 921.27 662.28 927.77 640.67 904.56 635.45 897.75 656.04"/><path class="cls-33" d="M902.67,646.1c-.8,4.78,2.91,9.37,8.28,10.27s10.37-2.24,11.17-7-2.91-9.37-8.28-10.27S903.47,641.33,902.67,646.1Z"/><path class="cls-29" d="M924.79,641.24c0,.23.24.47.61.53s.72-.07.75-.3-.23-.47-.61-.53S924.83,641,924.79,641.24Z"/><path class="cls-29" d="M904.87,637.15c0,.23.23.47.61.53s.71-.07.75-.3-.24-.46-.61-.53S904.91,636.93,904.87,637.15Z"/><path class="cls-29" d="M898.73,655c0,.23.24.46.61.53s.71-.08.75-.31-.23-.46-.61-.52S898.77,654.8,898.73,655Z"/><path class="cls-29" d="M919.82,659.31c0,.23.23.46.61.52s.71-.07.75-.3-.23-.46-.61-.53S919.86,659.08,919.82,659.31Z"/><path class="cls-40" d="M913.7,639.88c4.87.81,8.24,4.88,7.54,9.1a6.8,6.8,0,0,1-1.21,2.87l-14.91-9.06A9.13,9.13,0,0,1,913.7,639.88Z"/><path class="cls-46" d="M920,651.85a9,9,0,0,1-8.88,3.29c-4.86-.82-8.23-4.89-7.53-9.11a7,7,0,0,1,1.5-3.24Z"/><path class="cls-30" d="M911,674.19a4,4,0,1,0,3.35-4.62A4,4,0,0,0,911,674.19Z"/><path class="cls-41" d="M912.24,674a2.81,2.81,0,1,0,2.34-3.22A2.81,2.81,0,0,0,912.24,674Z"/><path class="cls-30" d="M909,686.19a4,4,0,1,0,3.35-4.62A4,4,0,0,0,909,686.19Z"/><path class="cls-41" d="M910.24,686a2.81,2.81,0,1,0,2.34-3.22A2.81,2.81,0,0,0,910.24,686Z"/><path class="cls-30" d="M701.61,656.56a5.38,5.38,0,1,0,5.38-5.38A5.37,5.37,0,0,0,701.61,656.56Z"/><path class="cls-29" d="M701.61,655.79a5.38,5.38,0,1,0,5.38-5.37A5.38,5.38,0,0,0,701.61,655.79Z"/><path class="cls-46" d="M703.22,655.79A3.77,3.77,0,1,0,707,652,3.77,3.77,0,0,0,703.22,655.79Z"/><path class="cls-49" d="M703.22,655a3.77,3.77,0,1,0,3.77-3.77A3.76,3.76,0,0,0,703.22,655Z"/><path class="cls-30" d="M766.53,636.21l-4.75,27s-22.5,1.5-40-4.5l3-27S740.53,629.46,766.53,636.21Z"/><path class="cls-29" d="M762.35,638.3l-3.86,22s-18.3,1.22-32.52-3.66l2.43-22S741.21,632.81,762.35,638.3Z"/><path class="cls-50" d="M760.34,639.3l-3.44,19.52s-16.27,1.09-28.92-3.25L730.15,636S741.54,634.42,760.34,639.3Z"/><rect class="cls-30" x="707.03" y="635.96" width="6" height="9" rx="2.75" ry="2.75"/><path class="cls-29" d="M712,639a2,2,0,0,0-2-2h0a2,2,0,0,0-2,2v3a2,2,0,0,0,2,2h0a2,2,0,0,0,2-2Z"/><rect class="cls-30" x="696.03" y="634.96" width="6" height="9" rx="2.75" ry="2.75"/><path class="cls-29" d="M701,638a2,2,0,0,0-2-2h0a2,2,0,0,0-2,2v3a2,2,0,0,0,2,2h0a2,2,0,0,0,2-2Z"/><rect class="cls-30" x="685.03" y="633.96" width="6" height="9" rx="2.75" ry="2.75"/><path class="cls-29" d="M690,637a2,2,0,0,0-2-2h0a2,2,0,0,0-2,2v3a2,2,0,0,0,2,2h0a2,2,0,0,0,2-2Z"/><path class="cls-30" d="M727.91,622.47a4.08,4.08,0,1,0,4.08-4.08A4.08,4.08,0,0,0,727.91,622.47Z"/><path class="cls-29" d="M727.91,621.89A4.08,4.08,0,1,0,732,617.8,4.08,4.08,0,0,0,727.91,621.89Z"/><path class="cls-46" d="M729.13,621.89A2.86,2.86,0,1,0,732,619,2.86,2.86,0,0,0,729.13,621.89Z"/><path class="cls-49" d="M729.13,621.3a2.86,2.86,0,1,0,2.86-2.86A2.86,2.86,0,0,0,729.13,621.3Z"/><path class="cls-30" d="M886.91,636.47a4.08,4.08,0,1,0,4.08-4.08A4.08,4.08,0,0,0,886.91,636.47Z"/><path class="cls-29" d="M886.91,635.89A4.08,4.08,0,1,0,891,631.8,4.08,4.08,0,0,0,886.91,635.89Z"/><path class="cls-46" d="M888.13,635.89A2.86,2.86,0,1,0,891,633,2.86,2.86,0,0,0,888.13,635.89Z"/><path class="cls-49" d="M888.13,635.3a2.86,2.86,0,1,0,2.86-2.86A2.86,2.86,0,0,0,888.13,635.3Z"/><path class="cls-30" d="M883.91,649.47a4.08,4.08,0,1,0,4.08-4.08A4.08,4.08,0,0,0,883.91,649.47Z"/><path class="cls-29" d="M883.91,648.89A4.08,4.08,0,1,0,888,644.8,4.08,4.08,0,0,0,883.91,648.89Z"/><path class="cls-46" d="M885.13,648.89A2.86,2.86,0,1,0,888,646,2.86,2.86,0,0,0,885.13,648.89Z"/><path class="cls-49" d="M885.13,648.3a2.86,2.86,0,1,0,2.86-2.86A2.86,2.86,0,0,0,885.13,648.3Z"/><path class="cls-30" d="M687.91,653.47a4.08,4.08,0,1,0,4.08-4.08A4.08,4.08,0,0,0,687.91,653.47Z"/><path class="cls-29" d="M687.91,652.89A4.08,4.08,0,1,0,692,648.8,4.08,4.08,0,0,0,687.91,652.89Z"/><path class="cls-46" d="M689.13,652.89A2.86,2.86,0,1,0,692,650,2.86,2.86,0,0,0,689.13,652.89Z"/><path class="cls-49" d="M689.13,652.3a2.86,2.86,0,1,0,2.86-2.86A2.86,2.86,0,0,0,689.13,652.3Z"/><path class="cls-30" d="M818.71,644.58l-5.19,26.92s-22.52,1.13-39.92-5.16l3.44-27S792.83,637.4,818.71,644.58Z"/><path class="cls-29" d="M814.5,646.6l-4.23,21.88s-18.31.92-32.45-4.19l2.8-21.91S793.45,640.76,814.5,646.6Z"/><path class="cls-50" d="M812.47,647.56,808.71,667s-16.28.82-28.87-3.73l2.49-19.48S793.75,642.38,812.47,647.56Z"/><path class="cls-30" d="M769,627a4,4,0,1,0,3-4.86A4,4,0,0,0,769,627Z"/><path class="cls-47" d="M770.22,626.76a2.81,2.81,0,1,0,2.09-3.39A2.81,2.81,0,0,0,770.22,626.76Z"/><rect class="cls-30" x="804.03" y="628.96" width="9" height="6" rx="2.75" ry="2.75" transform="translate(69.38 1343.83) rotate(-81.93)"/><path class="cls-29" d="M806.34,633.16a2,2,0,0,0,1.7,2.27h0a2,2,0,0,0,2.26-1.7l.42-3A2,2,0,0,0,809,628.5h0a2,2,0,0,0-2.27,1.69Z"/><rect class="cls-30" x="814.03" y="630.96" width="9" height="6" rx="2.75" ry="2.75" transform="translate(76 1355.45) rotate(-81.93)"/><path class="cls-29" d="M816.34,635.16a2,2,0,0,0,1.7,2.27h0a2,2,0,0,0,2.26-1.7l.42-3A2,2,0,0,0,819,630.5h0a2,2,0,0,0-2.27,1.69Z"/><rect class="cls-30" x="794.03" y="627.96" width="9" height="6" rx="2.75" ry="2.75" transform="translate(61.78 1333.07) rotate(-81.93)"/><path class="cls-29" d="M796.34,632.16a2,2,0,0,0,1.7,2.27h0a2,2,0,0,0,2.26-1.7l.42-3A2,2,0,0,0,799,627.5h0a2,2,0,0,0-2.27,1.69Z"/><rect class="cls-30" x="784.03" y="625.96" width="9" height="6" rx="2.75" ry="2.75" transform="translate(55.16 1321.45) rotate(-81.93)"/><path class="cls-29" d="M786.34,630.16a2,2,0,0,0,1.7,2.27h0a2,2,0,0,0,2.26-1.7l.42-3A2,2,0,0,0,789,625.5h0a2,2,0,0,0-2.27,1.69Z"/><path class="cls-30" d="M814.91,617.47a4.08,4.08,0,1,0,4.08-4.08A4.08,4.08,0,0,0,814.91,617.47Z"/><path class="cls-29" d="M814.91,616.89A4.08,4.08,0,1,0,819,612.8,4.08,4.08,0,0,0,814.91,616.89Z"/><path class="cls-46" d="M816.13,616.89A2.86,2.86,0,1,0,819,614,2.86,2.86,0,0,0,816.13,616.89Z"/><path class="cls-49" d="M816.13,616.3a2.86,2.86,0,1,0,2.86-2.86A2.86,2.86,0,0,0,816.13,616.3Z"/><path class="cls-30" d="M800.91,614.47a4.08,4.08,0,1,0,4.08-4.08A4.08,4.08,0,0,0,800.91,614.47Z"/><path class="cls-29" d="M800.91,613.89A4.08,4.08,0,1,0,805,609.8,4.08,4.08,0,0,0,800.91,613.89Z"/><path class="cls-51" d="M802.13,613.89A2.86,2.86,0,1,0,805,611,2.86,2.86,0,0,0,802.13,613.89Z"/><path class="cls-42" d="M802.13,613.3a2.86,2.86,0,1,0,2.86-2.86A2.86,2.86,0,0,0,802.13,613.3Z"/><path class="cls-30" d="M787.91,612.47a4.08,4.08,0,1,0,4.08-4.08A4.08,4.08,0,0,0,787.91,612.47Z"/><path class="cls-29" d="M787.91,611.89A4.08,4.08,0,1,0,792,607.8,4.08,4.08,0,0,0,787.91,611.89Z"/><path class="cls-43" d="M789.13,611.89A2.86,2.86,0,1,0,792,609,2.86,2.86,0,0,0,789.13,611.89Z"/><path class="cls-47" d="M789.13,611.3a2.86,2.86,0,1,0,2.86-2.86A2.86,2.86,0,0,0,789.13,611.3Z"/><path class="cls-30" d="M878.71,624.47l-5.47,26.43s-22.9-1.56-39.31-9.53l4.08-24.8S852.88,615.74,878.71,624.47Z"/><path class="cls-29" d="M874.33,626.11l-4.47,21.34s-18.5-1.18-31.93-7.61l3.29-20.29S853.41,618.93,874.33,626.11Z"/><path class="cls-50" d="M872.25,626.89l-4,18.92s-16.41-1-28.39-6.71l2.91-18.1S853.67,620.46,872.25,626.89Z"/><rect class="cls-30" x="852.03" y="654.96" width="9" height="6" rx="2.75" ry="2.75" transform="translate(84.91 1413.71) rotate(-81.93)"/><path class="cls-29" d="M854.34,659.16a2,2,0,0,0,1.7,2.27h0a2,2,0,0,0,2.26-1.7l.42-3A2,2,0,0,0,857,654.5h0a2,2,0,0,0-2.27,1.69Z"/><rect class="cls-30" x="862.03" y="656.96" width="9" height="6" rx="2.75" ry="2.75" transform="matrix(0.14, -0.99, 0.99, 0.14, 91.52, 1425.33)"/><path class="cls-29" d="M864.34,661.16a2,2,0,0,0,1.7,2.27h0a2,2,0,0,0,2.26-1.7l.42-3A2,2,0,0,0,867,656.5h0a2,2,0,0,0-2.27,1.69Z"/><rect class="cls-30" x="842.03" y="653.96" width="9" height="6" rx="2.75" ry="2.75" transform="translate(77.3 1402.95) rotate(-81.93)"/><path class="cls-29" d="M844.34,658.16a2,2,0,0,0,1.7,2.27h0a2,2,0,0,0,2.26-1.7l.42-3A2,2,0,0,0,847,653.5h0a2,2,0,0,0-2.27,1.69Z"/><rect class="cls-30" x="832.03" y="651.96" width="9" height="6" rx="2.75" ry="2.75" transform="translate(70.68 1391.32) rotate(-81.93)"/><path class="cls-29" d="M834.34,656.16a2,2,0,0,0,1.7,2.27h0a2,2,0,0,0,2.26-1.7l.42-3A2,2,0,0,0,837,651.5h0a2,2,0,0,0-2.27,1.69Z"/><rect class="cls-30" x="850.03" y="668.96" width="9" height="6" rx="2.75" ry="2.75" transform="translate(69.32 1423.76) rotate(-81.93)"/><path class="cls-29" d="M852.34,673.16a2,2,0,0,0,1.7,2.27h0a2,2,0,0,0,2.26-1.7l.42-3A2,2,0,0,0,855,668.5h0a2,2,0,0,0-2.27,1.69Z"/><rect class="cls-30" x="860.03" y="670.96" width="9" height="6" rx="2.75" ry="2.75" transform="translate(75.94 1435.38) rotate(-81.93)"/><path class="cls-29" d="M862.34,675.16a2,2,0,0,0,1.7,2.27h0a2,2,0,0,0,2.26-1.7l.42-3A2,2,0,0,0,865,670.5h0a2,2,0,0,0-2.27,1.69Z"/><rect class="cls-30" x="840.03" y="667.96" width="9" height="6" rx="2.75" ry="2.75" transform="translate(61.72 1413) rotate(-81.93)"/><path class="cls-29" d="M842.34,672.16a2,2,0,0,0,1.7,2.27h0a2,2,0,0,0,2.26-1.7l.42-3A2,2,0,0,0,845,667.5h0a2,2,0,0,0-2.27,1.69Z"/><rect class="cls-30" x="830.03" y="665.96" width="9" height="6" rx="2.75" ry="2.75" transform="translate(55.1 1401.38) rotate(-81.93)"/><path class="cls-29" d="M832.34,670.16a2,2,0,0,0,1.7,2.27h0a2,2,0,0,0,2.26-1.7l.42-3A2,2,0,0,0,835,665.5h0a2,2,0,0,0-2.27,1.69Z"/><rect class="cls-30" x="931.03" y="678.29" width="9" height="6" rx="2.75" ry="2.75" transform="translate(129.72 1511.98) rotate(-81.93)"/><path class="cls-29" d="M933.34,682.5a2,2,0,0,0,1.7,2.26h0a2,2,0,0,0,2.26-1.7l.42-3a2,2,0,0,0-1.69-2.26h0a2,2,0,0,0-2.27,1.7Z"/><rect class="cls-30" x="927.03" y="693.96" width="9" height="6" rx="2.75" ry="2.75" transform="translate(110.77 1521.49) rotate(-81.93)"/><path class="cls-29" d="M929.34,698.16a2,2,0,0,0,1.7,2.27h0a2,2,0,0,0,2.26-1.7l.42-3A2,2,0,0,0,932,693.5h0a2,2,0,0,0-2.27,1.69Z"/><rect class="cls-30" x="935.03" y="662.63" width="9" height="6" rx="2.75" ry="2.75" transform="translate(148.67 1502.48) rotate(-81.93)"/><path class="cls-29" d="M937.34,666.83a2,2,0,0,0,1.7,2.26h0a2,2,0,0,0,2.26-1.69l.42-3a2,2,0,0,0-1.69-2.26h0a2,2,0,0,0-2.27,1.7Z"/><rect class="cls-30" x="937.03" y="646.96" width="9" height="6" rx="2.75" ry="2.75" transform="translate(165.9 1490.99) rotate(-81.93)"/><path class="cls-29" d="M939.34,651.16a2,2,0,0,0,1.7,2.27h0a2,2,0,0,0,2.26-1.7l.42-3A2,2,0,0,0,942,646.5h0a2,2,0,0,0-2.27,1.69Z"/><path class="cls-30" d="M900,671a4,4,0,1,0,3-4.86A4,4,0,0,0,900,671Z"/><path class="cls-47" d="M901.22,670.76a2.81,2.81,0,1,0,2.09-3.39A2.81,2.81,0,0,0,901.22,670.76Z"/><path class="cls-30" d="M897,684a4,4,0,1,0,3-4.86A4,4,0,0,0,897,684Z"/><path class="cls-47" d="M898.22,683.76a2.81,2.81,0,1,0,2.09-3.39A2.81,2.81,0,0,0,898.22,683.76Z"/><polygon class="cls-30" points="896.92 663.09 892.59 685.17 872.25 679.07 877.37 657.56 896.92 663.09"/><rect class="cls-30" x="942.03" y="685.29" width="9" height="6" rx="2.75" ry="2.75" transform="translate(132.25 1528.89) rotate(-81.93)"/><path class="cls-29" d="M944.34,689.5a2,2,0,0,0,1.7,2.26h0a2,2,0,0,0,2.26-1.7l.42-3a2,2,0,0,0-1.69-2.26h0a2,2,0,0,0-2.27,1.7Z"/><rect class="cls-30" x="938.03" y="700.96" width="9" height="6" rx="2.75" ry="2.75" transform="translate(113.29 1538.4) rotate(-81.93)"/><path class="cls-29" d="M940.34,705.16a2,2,0,0,0,1.7,2.27h0a2,2,0,0,0,2.26-1.7l.42-3A2,2,0,0,0,943,700.5h0a2,2,0,0,0-2.27,1.69Z"/><rect class="cls-30" x="946.03" y="669.63" width="9" height="6" rx="2.75" ry="2.75" transform="translate(151.19 1519.39) rotate(-81.93)"/><path class="cls-29" d="M948.34,673.83a2,2,0,0,0,1.7,2.26h0a2,2,0,0,0,2.26-1.69l.42-3a2,2,0,0,0-1.69-2.26h0a2,2,0,0,0-2.27,1.7Z"/><rect class="cls-30" x="948.03" y="653.96" width="9" height="6" rx="2.75" ry="2.75" transform="translate(168.43 1507.9) rotate(-81.93)"/><path class="cls-29" d="M950.34,658.16a2,2,0,0,0,1.7,2.27h0a2,2,0,0,0,2.26-1.7l.42-3A2,2,0,0,0,953,653.5h0a2,2,0,0,0-2.27,1.69Z"/><rect class="cls-30" x="953.03" y="692.29" width="9" height="6" rx="2.75" ry="2.75" transform="translate(134.77 1545.8) rotate(-81.93)"/><path class="cls-29" d="M955.34,696.5a2,2,0,0,0,1.7,2.26h0a2,2,0,0,0,2.26-1.7l.42-3a2,2,0,0,0-1.69-2.26h0a2,2,0,0,0-2.27,1.7Z"/><rect class="cls-30" x="949.03" y="707.96" width="9" height="6" rx="2.75" ry="2.75" transform="translate(115.82 1555.31) rotate(-81.93)"/><path class="cls-29" d="M951.34,712.16a2,2,0,0,0,1.7,2.27h0a2,2,0,0,0,2.26-1.7l.42-3A2,2,0,0,0,954,707.5h0a2,2,0,0,0-2.27,1.69Z"/><rect class="cls-30" x="957.03" y="676.63" width="9" height="6" rx="2.75" ry="2.75" transform="matrix(0.14, -0.99, 0.99, 0.14, 153.72, 1536.29)"/><path class="cls-29" d="M959.34,680.83a2,2,0,0,0,1.7,2.26h0a2,2,0,0,0,2.26-1.69l.42-3a2,2,0,0,0-1.69-2.26h0a2,2,0,0,0-2.27,1.7Z"/><rect class="cls-30" x="959.03" y="660.96" width="9" height="6" rx="2.75" ry="2.75" transform="translate(170.95 1524.81) rotate(-81.93)"/><path class="cls-29" d="M961.34,665.16a2,2,0,0,0,1.7,2.27h0a2,2,0,0,0,2.26-1.7l.42-3A2,2,0,0,0,964,660.5h0a2,2,0,0,0-2.27,1.69Z"/><path class="cls-33" d="M981.46,665.48s-9,62.14-9.51,65.09L1000,751.8,1015.89,699S997.21,675,981.46,665.48Z"/><path class="cls-52" d="M236.73,706.46s0-.83.08-2.44a38.53,38.53,0,0,1,1.11-7,43.4,43.4,0,0,1,4.34-10.64,63.08,63.08,0,0,1,9.33-12.47c8-8.51,19.57-17,33.85-24.83s31.21-15.06,50.15-21.49a589.41,589.41,0,0,1,62.25-17.14c22.38-5,46.2-9.16,71-12.45a1217.75,1217.75,0,0,1,312.41,0c24.78,3.28,48.61,7.47,71,12.45a587.22,587.22,0,0,1,62.26,17.14c9.46,3.23,18.44,6.62,26.83,10.21s16.18,7.37,23.32,11.28c14.28,7.78,25.82,16.32,33.85,24.83a63,63,0,0,1,9.32,12.47,43.48,43.48,0,0,1,4.35,10.64,38.32,38.32,0,0,1,1.1,7c.06,1.61.08,2.44.08,2.44s0-.83-.12-2.44a38.43,38.43,0,0,0-1.22-7,43.3,43.3,0,0,0-4.5-10.5,63.93,63.93,0,0,0-9.43-12.25c-8.08-8.35-19.66-16.69-34-24.25s-31.25-14.57-50.16-20.87a587,587,0,0,0-62.18-16.61c-22.35-4.78-46.14-8.74-70.86-12A1200.21,1200.21,0,0,0,625,590.9a1198.29,1198.29,0,0,0-155.86,9.63c-24.72,3.27-48.52,7.22-70.86,12a588.21,588.21,0,0,0-62.18,16.6c-18.91,6.3-35.88,13.25-50.16,20.88s-25.88,15.9-34,24.25a64.42,64.42,0,0,0-9.44,12.25,43.7,43.7,0,0,0-4.5,10.5,39.33,39.33,0,0,0-1.22,7C236.77,705.63,236.73,706.46,236.73,706.46Z"/></g><g class="cls-26"><polygon class="cls-53" points="536.86 658.96 400.37 658.96 363.87 743.67 495.03 746.01 536.9 659.11 536.86 658.96"/><polygon class="cls-54" points="542.59 685.42 536.9 659.04 495.03 745.98 523.94 748.46 542.59 685.42"/><path class="cls-55" d="M509.77,653h19.8s4.33,3.06,3.76,5.81-21.3,41-21.3,41l-9-37.81V651Z"/><path class="cls-56" d="M383,517.26c2.15-6.17,12.22-6.58,17.52-6.84,9-.44,18,0,27-.18,7.51-.13,16.15-.33,21.46,6a43.37,43.37,0,0,1,10,27.32v8.54s28.88,1.23,31.91,7.3S513.57,671,514.83,688.94s-5.93,10.84-5.93,10.84l-115.83-85Z"/><polygon class="cls-53" points="343.07 566.96 364.95 543.96 384.67 543.96 362.36 566.96 343.07 566.96"/><polygon class="cls-54" points="455.31 547.96 441.11 514.93 430.8 529.74 440.97 569.96 441.06 569.96 455.64 547.96 455.31 547.96"/><polygon class="cls-54" points="485.82 548.29 473.23 569.96 473.31 569.96 503.25 748.02 523.94 748.29 485.82 548.29"/><polygon class="cls-53" points="485.81 547.96 455.64 547.96 441.06 569.96 473.23 569.96 485.82 548.06 485.81 547.96"/><path class="cls-53" d="M441.11,515.3l-.21-.55s-58.17.7-60.9.15L366.51,530h64.54Z"/><polygon class="cls-57" points="473.31 569.96 440.97 569.96 430.8 530 431.05 529.96 366.51 529.96 362.33 566.43 343.07 566.86 332.47 745.95 503.25 748.04 473.31 569.96"/><polygon class="cls-53" points="713.2 658.96 849.69 658.96 886.19 743.67 755.04 746.01 713.16 659.11 713.2 658.96"/><polygon class="cls-54" points="707.47 685.42 713.16 659.04 755.04 745.98 726.13 748.46 707.47 685.42"/><path class="cls-55" d="M740.29,653H720.5s-4.34,3.06-3.76,5.81,21.3,41,21.3,41l9-37.81V651Z"/><path class="cls-56" d="M867,517.26c-2.15-6.17-12.22-6.58-17.51-6.84-9-.44-18,0-27-.18-7.5-.13-16.14-.33-21.45,6A43.32,43.32,0,0,0,791,543.52v8.54s-28.87,1.23-31.91,7.3S736.5,671,735.23,688.94s5.93,10.84,5.93,10.84l115.84-85Z"/><polygon class="cls-53" points="907 566.96 885.12 543.96 865.39 543.96 887.71 566.96 907 566.96"/><polygon class="cls-54" points="794.76 547.96 808.96 514.93 819.27 529.74 809.09 569.96 809.01 569.96 794.42 547.96 794.76 547.96"/><polygon class="cls-54" points="764.25 548.29 776.83 569.96 776.76 569.96 746.82 748.02 726.13 748.29 764.25 548.29"/><polygon class="cls-53" points="764.25 547.96 794.42 547.96 809.01 569.96 776.83 569.96 764.25 548.06 764.25 547.96"/><path class="cls-53" d="M809,515.3l.2-.55s58.18.7,60.9.15L883.55,530H819Z"/><polygon class="cls-57" points="776.76 569.96 809.09 569.96 819.27 530 819.02 529.96 883.55 529.96 887.73 566.43 907 566.86 917.59 745.95 746.82 748.04 776.76 569.96"/></g><g class="cls-26"><polygon class="cls-30" points="696.57 658.96 553.6 658.96 527.81 697.96 722.25 697.96 696.57 658.96"/><polygon class="cls-32" points="527.81 697.96 527.61 698.34 553.39 757.72 613.03 757.89 613.03 757.94 624.55 757.91 636.03 757.94 636.03 757.89 696.23 757.76 722.34 698.34 722.25 697.96 527.81 697.96"/><polygon class="cls-33" points="699.17 710.96 551 710.96 571.55 759.96 678.4 759.96 699.17 710.96"/><path class="cls-33" d="M545.5,646.48l6.71,29.73s6.48,3.12,8.16-3.11l-11.75-28.3Z"/><circle class="cls-46" cx="545.5" cy="641.21" r="7.91" transform="translate(-293.63 573.53) rotate(-45)"/><polygon class="cls-32" points="575.48 594.96 551.99 692.96 702.34 692.96 678.82 594.96 575.48 594.96"/><polygon class="cls-50" points="616.71 677.96 607.25 677.96 611.53 599.96 621 599.96 616.71 677.96"/><polygon class="cls-50" points="637.61 677.96 647.08 677.96 642.8 599.96 633.33 599.96 637.61 677.96"/><path class="cls-30" d="M667.19,642.17c0,2.61-2.92,4.73-6.53,4.73s-6.52-2.12-6.52-4.73c0-5.88,2.92-6.45,6.52-6.45S667.19,636.72,667.19,642.17Z"/><path class="cls-29" d="M667,639.88c0,2.61-2.72,4.3-6.33,4.3s-6.34-1.73-6.34-4.35,2.73-5,6.34-5S667,637.26,667,639.88Z"/><path class="cls-46" d="M664.87,639.13c0,1.68-1.89,3-4.21,3s-4.2-1.37-4.2-3c0-3.79,1.88-4.16,4.2-4.16S664.87,635.62,664.87,639.13Z"/><path class="cls-49" d="M664.74,637.65c0,1.68-1.76,2.77-4.08,2.77s-4.08-1.11-4.08-2.8,1.76-3.2,4.08-3.2S664.74,636,664.74,637.65Z"/><path class="cls-30" d="M685.26,642.17c0,2.61-2.92,4.73-6.52,4.73s-6.53-2.12-6.53-4.73c0-5.88,2.92-6.45,6.53-6.45S685.26,636.72,685.26,642.17Z"/><path class="cls-29" d="M685.07,639.88c0,2.61-2.73,4.3-6.33,4.3s-6.35-1.73-6.35-4.35,2.73-5,6.34-5S685.07,637.26,685.07,639.88Z"/><path class="cls-46" d="M682.94,639.13c0,1.68-1.88,3-4.2,3s-4.21-1.37-4.21-3c0-3.79,1.89-4.16,4.21-4.16S682.94,635.62,682.94,639.13Z"/><path class="cls-49" d="M682.81,637.65c0,1.68-1.75,2.77-4.07,2.77s-4.09-1.11-4.09-2.8,1.76-3.2,4.08-3.2S682.81,636,682.81,637.65Z"/><polygon class="cls-30" points="694.39 677.96 656.51 677.96 654.03 651.96 688.16 651.96 694.39 677.96"/><path class="cls-33" d="M688.86,664.39c0,6.18-7,11.19-15.52,11.19s-15.51-5-15.51-11.19,6.94-11.19,15.51-11.19S688.86,658.21,688.86,664.39Z"/><path class="cls-40" d="M687.4,664.11c0,5.45-6.29,9.88-14.06,9.88s-14.05-4.43-14.05-9.88,6.29-9.88,14.05-9.88S687.4,658.65,687.4,664.11Z"/><polygon class="cls-33" points="668.64 659.76 673.08 665.7 675.65 663.75 668.64 659.76"/><path class="cls-58" d="M660.37,664.11a6.34,6.34,0,0,0,.13,1.23l4.31-.66a3.66,3.66,0,0,1,0-.57,5.56,5.56,0,0,1,3.08-4.63l-2-2.83C662.55,658.3,660.37,661,660.37,664.11Z"/><path class="cls-47" d="M663.62,670.14l2.64-2.63a5,5,0,0,1-1.45-2.83l-4.31.66A8.26,8.26,0,0,0,663.62,670.14Z"/><path class="cls-59" d="M681.88,663.51a4,4,0,0,1,0,.6,4.72,4.72,0,0,1-1,2.89l2.86,2.55a7.51,7.51,0,0,0,2.58-5.44c0-.05,0-.1,0-.15Z"/><path class="cls-60" d="M673.34,655a17,17,0,0,0-7.45,1.66l2,2.83a11,11,0,0,1,5.5-1.4,11.16,11.16,0,0,1,4.67,1l1.22-3.07A17.57,17.57,0,0,0,673.34,655Z"/><path class="cls-61" d="M679.23,656,678,659.06a6.14,6.14,0,0,1,3.87,4.45l4.43.45C686.23,660.48,683.37,657.48,679.23,656Z"/><path class="cls-29" d="M657.37,654.06c0,.27-.41.49-.92.49s-.93-.22-.93-.49.42-.48.93-.48S657.37,653.8,657.37,654.06Z"/><path class="cls-29" d="M686.64,653.2c0,.27-.42.49-.93.49s-.92-.22-.92-.49.41-.48.92-.48S686.64,652.94,686.64,653.2Z"/><path class="cls-29" d="M691.8,675.58c0,.27-.41.49-.92.49s-.93-.22-.93-.49.41-.48.93-.48S691.8,675.31,691.8,675.58Z"/><path class="cls-29" d="M660,674.72c0,.27-.42.49-.93.49s-.93-.22-.93-.49.42-.48.93-.48S660,674.45,660,674.72Z"/><polygon class="cls-30" points="682.14 624.96 649.48 624.96 646.74 599.96 676.18 599.96 682.14 624.96"/><polygon class="cls-33" points="677.78 621.65 653.69 621.81 651.23 603.44 673.29 603.57 677.78 621.65"/><path class="cls-29" d="M650.22,602.14c0,.23-.36.42-.8.42s-.8-.19-.8-.42.36-.42.8-.42S650.22,601.91,650.22,602.14Z"/><ellipse class="cls-29" cx="674.66" cy="602.26" rx="0.8" ry="0.42"/><path class="cls-29" d="M679.91,623.28c0,.24-.35.42-.79.42s-.8-.18-.8-.42.35-.42.8-.42S679.91,623.05,679.91,623.28Z"/><path class="cls-29" d="M652.45,622.54c0,.23-.36.42-.8.42s-.8-.19-.8-.42.36-.42.8-.42S652.45,622.31,652.45,622.54Z"/><g class="cls-62"><g class="cls-36"><path class="cls-27" d="M659.31,623.66a.38.38,0,0,1-.37-.32l-3.46-21.14a.39.39,0,0,1,.31-.43.38.38,0,0,1,.43.31l3.46,21.14a.36.36,0,0,1-.31.43Z"/></g><g class="cls-36"><path class="cls-27" d="M666.31,623.66a.37.37,0,0,1-.36-.31l-4-21a.38.38,0,1,1,.74-.14l4,21a.37.37,0,0,1-.3.44Z"/></g><g class="cls-36"><path class="cls-27" d="M672.31,623.66a.36.36,0,0,1-.36-.3l-4.37-21.44a.37.37,0,0,1,.29-.44.37.37,0,0,1,.45.29l4.36,21.44a.38.38,0,0,1-.29.44Z"/></g><g class="cls-36"><path class="cls-27" d="M675,608H650a.5.5,0,0,1,0-1h25a.5.5,0,0,1,0,1Z"/></g><g class="cls-36"><path class="cls-27" d="M676,613H651a.5.5,0,0,1,0-1h25a.5.5,0,0,1,0,1Z"/></g><g class="cls-36"><path class="cls-27" d="M677,618H652a.5.5,0,0,1,0-1h25a.5.5,0,0,1,0,1Z"/></g><path class="cls-34" d="M649.72,606.87c.43-1.72,3.43-1,4.19-.2a12.28,12.28,0,0,1,2,3.5,22,22,0,0,0,3.4,6,5.5,5.5,0,0,0,3.54,1.93c1.89,0,2.15-1.64,2.69-3.19.66-1.93.84-4,1.7-5.84,1.07-2.3,2.41.69,2.87,1.6a11.76,11.76,0,0,0,1.62,2.44c2.92,3.38,5.06-1.27,6.78-3.11.2-.21-.71-.53-.91-.32a14.71,14.71,0,0,0-1.6,2.24c-1.26,2-3.16,1.78-4.39-.17-.73-1.15-1.08-3.37-2.4-4-3.41-1.66-4,4.67-4.51,6.56-.48,1.68-.93,4.34-3.55,2.7-1.49-.94-2.42-2.72-3.19-4.23a45.16,45.16,0,0,0-2.81-5.66,4.32,4.32,0,0,0-3.13-2c-.91,0-3,.48-3.27,1.52-.07.27.91.5,1,.22Z"/></g><path class="cls-30" d="M584.56,671.43c0,2.62-2.92,4.74-6.53,4.74s-6.52-2.12-6.52-4.74c0-5.88,2.92-6.45,6.52-6.45S584.56,666,584.56,671.43Z"/><path class="cls-29" d="M584.36,669.14c0,2.61-2.72,4.3-6.33,4.3s-6.34-1.73-6.34-4.34,2.73-5,6.34-5S584.36,666.53,584.36,669.14Z"/><path class="cls-46" d="M582.24,668.39c0,1.69-1.89,3.05-4.21,3.05s-4.2-1.36-4.2-3.05c0-3.78,1.88-4.15,4.2-4.15S582.24,664.88,582.24,668.39Z"/><path class="cls-49" d="M582.11,666.92c0,1.68-1.76,2.77-4.08,2.77s-4.08-1.12-4.08-2.8,1.76-3.21,4.08-3.21S582.11,665.23,582.11,666.92Z"/><polygon class="cls-63" points="576.64 650.96 586.11 650.96 589.89 629.96 580.42 629.96 576.64 650.96"/><polygon class="cls-47" points="574.91 659.96 584.38 659.96 585.64 652.96 576.17 652.96 574.91 659.96"/><polygon class="cls-64" points="595.4 599.96 585.93 599.96 584.67 606.96 594.14 606.96 595.4 599.96"/><polygon class="cls-48" points="584.2 609.96 580.89 627.96 590.36 627.96 593.67 609.96 584.2 609.96"/><rect class="cls-33" x="610.03" y="620.96" width="8" height="28" rx="3.87" ry="3.87"/><rect class="cls-33" x="636.03" y="620.96" width="8" height="28" rx="3.87" ry="3.87"/><rect class="cls-53" x="595.03" y="609.96" width="65" height="14" rx="6.79" ry="6.79"/><path class="cls-30" d="M599,657.56a3.48,3.48,0,1,1-3.47-3.48A3.47,3.47,0,0,1,599,657.56Z"/><path class="cls-45" d="M597.94,657.56a2.42,2.42,0,1,1-2.42-2.42A2.42,2.42,0,0,1,597.94,657.56Z"/></g></g></g></svg>