<svg xmlns="http://www.w3.org/2000/svg" viewBox="0 0 129.1 145.54"><defs><style>.cls-1{fill:#fff;}</style></defs><title>Asset 2</title><g id="Layer_2" data-name="Layer 2"><g id="Layer_1-2" data-name="Layer 1"><path class="cls-1" d="M63.19,0a39.59,39.59,0,1,0,39.58,39.59A39.58,39.58,0,0,0,63.19,0Zm.58,48.17a8.39,8.39,0,1,1,8.39-8.39A8.39,8.39,0,0,1,63.77,48.17Z"/><path class="cls-1" d="M81.57,46.93c9.25,13.67,47.52,4.14,47.53.07,0-1.79-7.34-1-24.57-7-14-4.87-19.94-9.11-23.22-6.38C78.47,36,78.69,42.68,81.57,46.93Z"/><path class="cls-1" d="M79.24,92.69l-.3,20L0,145.54q.45-13.32.91-26.65Z"/><path class="cls-1" d="M79.23,113l.07-20L1,62.41l.42,26.64Z"/><rect class="cls-1" x="30.6" y="59.17" width="17" height="26"/></g></g></svg>